<?xml version="1.0" encoding="utf-8" standalone="no"?>
<!DOCTYPE svg PUBLIC "-//W3C//DTD SVG 1.1//EN"
  "http://www.w3.org/Graphics/SVG/1.1/DTD/svg11.dtd">
<svg xmlns:xlink="http://www.w3.org/1999/xlink" width="408.10125pt" height="310.86825pt" viewBox="0 0 408.10125 310.86825" xmlns="http://www.w3.org/2000/svg" version="1.1">
 <metadata>
  <rdf:RDF xmlns:dc="http://purl.org/dc/elements/1.1/" xmlns:cc="http://creativecommons.org/ns#" xmlns:rdf="http://www.w3.org/1999/02/22-rdf-syntax-ns#">
   <cc:Work>
    <dc:type rdf:resource="http://purl.org/dc/dcmitype/StillImage"/>
    <dc:date>2022-04-08T00:35:03.050141</dc:date>
    <dc:format>image/svg+xml</dc:format>
    <dc:creator>
     <cc:Agent>
      <dc:title>Matplotlib v3.5.1, https://matplotlib.org/</dc:title>
     </cc:Agent>
    </dc:creator>
   </cc:Work>
  </rdf:RDF>
 </metadata>
 <defs>
  <style type="text/css">*{stroke-linejoin: round; stroke-linecap: butt}</style>
 </defs>
 <g id="figure_1">
  <g id="patch_1">
   <path d="M 0 310.86825 
L 408.10125 310.86825 
L 408.10125 0 
L 0 0 
z
" style="fill: #ffffff"/>
  </g>
  <g id="axes_1">
   <g id="patch_2">
    <path d="M 43.78125 273.312 
L 400.90125 273.312 
L 400.90125 7.2 
L 43.78125 7.2 
z
" style="fill: #ffffff"/>
   </g>
   <g id="patch_3">
    <path d="M 60.532545 273.312 
L 62.144055 273.312 
L 62.144055 268.967314 
L 60.532545 268.967314 
z
" clip-path="url(#pa577d0a56e)" style="fill: #1f77b4"/>
   </g>
   <g id="patch_4">
    <path d="M 62.144055 273.312 
L 63.755565 273.312 
L 63.755565 263.898514 
L 62.144055 263.898514 
z
" clip-path="url(#pa577d0a56e)" style="fill: #1f77b4"/>
   </g>
   <g id="patch_5">
    <path d="M 63.755565 273.312 
L 65.367075 273.312 
L 65.367075 260.277943 
L 63.755565 260.277943 
z
" clip-path="url(#pa577d0a56e)" style="fill: #1f77b4"/>
   </g>
   <g id="patch_6">
    <path d="M 65.367075 273.312 
L 66.978586 273.312 
L 66.978586 261.726171 
L 65.367075 261.726171 
z
" clip-path="url(#pa577d0a56e)" style="fill: #1f77b4"/>
   </g>
   <g id="patch_7">
    <path d="M 66.978586 273.312 
L 68.590096 273.312 
L 68.590096 260.277943 
L 66.978586 260.277943 
z
" clip-path="url(#pa577d0a56e)" style="fill: #1f77b4"/>
   </g>
   <g id="patch_8">
    <path d="M 68.590096 273.312 
L 70.201606 273.312 
L 70.201606 253.760914 
L 68.590096 253.760914 
z
" clip-path="url(#pa577d0a56e)" style="fill: #1f77b4"/>
   </g>
   <g id="patch_9">
    <path d="M 70.201606 273.312 
L 71.813116 273.312 
L 71.813116 250.864457 
L 70.201606 250.864457 
z
" clip-path="url(#pa577d0a56e)" style="fill: #1f77b4"/>
   </g>
   <g id="patch_10">
    <path d="M 71.813116 273.312 
L 73.424626 273.312 
L 73.424626 250.140343 
L 71.813116 250.140343 
z
" clip-path="url(#pa577d0a56e)" style="fill: #1f77b4"/>
   </g>
   <g id="patch_11">
    <path d="M 73.424626 273.312 
L 75.036136 273.312 
L 75.036136 245.071543 
L 73.424626 245.071543 
z
" clip-path="url(#pa577d0a56e)" style="fill: #1f77b4"/>
   </g>
   <g id="patch_12">
    <path d="M 75.036136 273.312 
L 76.647646 273.312 
L 76.647646 234.209829 
L 75.036136 234.209829 
z
" clip-path="url(#pa577d0a56e)" style="fill: #1f77b4"/>
   </g>
   <g id="patch_13">
    <path d="M 76.647646 273.312 
L 78.259156 273.312 
L 78.259156 236.382171 
L 76.647646 236.382171 
z
" clip-path="url(#pa577d0a56e)" style="fill: #1f77b4"/>
   </g>
   <g id="patch_14">
    <path d="M 78.259156 273.312 
L 79.870666 273.312 
L 79.870666 226.244571 
L 78.259156 226.244571 
z
" clip-path="url(#pa577d0a56e)" style="fill: #1f77b4"/>
   </g>
   <g id="patch_15">
    <path d="M 79.870666 273.312 
L 81.482177 273.312 
L 81.482177 225.520457 
L 79.870666 225.520457 
z
" clip-path="url(#pa577d0a56e)" style="fill: #1f77b4"/>
   </g>
   <g id="patch_16">
    <path d="M 81.482177 273.312 
L 83.093687 273.312 
L 83.093687 238.554514 
L 81.482177 238.554514 
z
" clip-path="url(#pa577d0a56e)" style="fill: #1f77b4"/>
   </g>
   <g id="patch_17">
    <path d="M 83.093687 273.312 
L 84.705197 273.312 
L 84.705197 230.589257 
L 83.093687 230.589257 
z
" clip-path="url(#pa577d0a56e)" style="fill: #1f77b4"/>
   </g>
   <g id="patch_18">
    <path d="M 84.705197 273.312 
L 86.316707 273.312 
L 86.316707 230.589257 
L 84.705197 230.589257 
z
" clip-path="url(#pa577d0a56e)" style="fill: #1f77b4"/>
   </g>
   <g id="patch_19">
    <path d="M 86.316707 273.312 
L 87.928217 273.312 
L 87.928217 221.899886 
L 86.316707 221.899886 
z
" clip-path="url(#pa577d0a56e)" style="fill: #1f77b4"/>
   </g>
   <g id="patch_20">
    <path d="M 87.928217 273.312 
L 89.539727 273.312 
L 89.539727 211.038171 
L 87.928217 211.038171 
z
" clip-path="url(#pa577d0a56e)" style="fill: #1f77b4"/>
   </g>
   <g id="patch_21">
    <path d="M 89.539727 273.312 
L 91.151237 273.312 
L 91.151237 195.831771 
L 89.539727 195.831771 
z
" clip-path="url(#pa577d0a56e)" style="fill: #1f77b4"/>
   </g>
   <g id="patch_22">
    <path d="M 91.151237 273.312 
L 92.762747 273.312 
L 92.762747 212.4864 
L 91.151237 212.4864 
z
" clip-path="url(#pa577d0a56e)" style="fill: #1f77b4"/>
   </g>
   <g id="patch_23">
    <path d="M 92.762747 273.312 
L 94.374258 273.312 
L 94.374258 196.555886 
L 92.762747 196.555886 
z
" clip-path="url(#pa577d0a56e)" style="fill: #1f77b4"/>
   </g>
   <g id="patch_24">
    <path d="M 94.374258 273.312 
L 95.985768 273.312 
L 95.985768 202.3488 
L 94.374258 202.3488 
z
" clip-path="url(#pa577d0a56e)" style="fill: #1f77b4"/>
   </g>
   <g id="patch_25">
    <path d="M 95.985768 273.312 
L 97.597278 273.312 
L 97.597278 203.797029 
L 95.985768 203.797029 
z
" clip-path="url(#pa577d0a56e)" style="fill: #1f77b4"/>
   </g>
   <g id="patch_26">
    <path d="M 97.597278 273.312 
L 99.208788 273.312 
L 99.208788 178.453029 
L 97.597278 178.453029 
z
" clip-path="url(#pa577d0a56e)" style="fill: #1f77b4"/>
   </g>
   <g id="patch_27">
    <path d="M 99.208788 273.312 
L 100.820298 273.312 
L 100.820298 182.0736 
L 99.208788 182.0736 
z
" clip-path="url(#pa577d0a56e)" style="fill: #1f77b4"/>
   </g>
   <g id="patch_28">
    <path d="M 100.820298 273.312 
L 102.431808 273.312 
L 102.431808 184.970057 
L 100.820298 184.970057 
z
" clip-path="url(#pa577d0a56e)" style="fill: #1f77b4"/>
   </g>
   <g id="patch_29">
    <path d="M 102.431808 273.312 
L 104.043318 273.312 
L 104.043318 184.245943 
L 102.431808 184.245943 
z
" clip-path="url(#pa577d0a56e)" style="fill: #1f77b4"/>
   </g>
   <g id="patch_30">
    <path d="M 104.043318 273.312 
L 105.654828 273.312 
L 105.654828 192.2112 
L 104.043318 192.2112 
z
" clip-path="url(#pa577d0a56e)" style="fill: #1f77b4"/>
   </g>
   <g id="patch_31">
    <path d="M 105.654828 273.312 
L 107.266339 273.312 
L 107.266339 164.694857 
L 105.654828 164.694857 
z
" clip-path="url(#pa577d0a56e)" style="fill: #1f77b4"/>
   </g>
   <g id="patch_32">
    <path d="M 107.266339 273.312 
L 108.877849 273.312 
L 108.877849 158.177829 
L 107.266339 158.177829 
z
" clip-path="url(#pa577d0a56e)" style="fill: #1f77b4"/>
   </g>
   <g id="patch_33">
    <path d="M 108.877849 273.312 
L 110.489359 273.312 
L 110.489359 172.660114 
L 108.877849 172.660114 
z
" clip-path="url(#pa577d0a56e)" style="fill: #1f77b4"/>
   </g>
   <g id="patch_34">
    <path d="M 110.489359 273.312 
L 112.100869 273.312 
L 112.100869 158.177829 
L 110.489359 158.177829 
z
" clip-path="url(#pa577d0a56e)" style="fill: #1f77b4"/>
   </g>
   <g id="patch_35">
    <path d="M 112.100869 273.312 
L 113.712379 273.312 
L 113.712379 159.626057 
L 112.100869 159.626057 
z
" clip-path="url(#pa577d0a56e)" style="fill: #1f77b4"/>
   </g>
   <g id="patch_36">
    <path d="M 113.712379 273.312 
L 115.323889 273.312 
L 115.323889 140.074971 
L 113.712379 140.074971 
z
" clip-path="url(#pa577d0a56e)" style="fill: #1f77b4"/>
   </g>
   <g id="patch_37">
    <path d="M 115.323889 273.312 
L 116.935399 273.312 
L 116.935399 161.7984 
L 115.323889 161.7984 
z
" clip-path="url(#pa577d0a56e)" style="fill: #1f77b4"/>
   </g>
   <g id="patch_38">
    <path d="M 116.935399 273.312 
L 118.546909 273.312 
L 118.546909 172.660114 
L 116.935399 172.660114 
z
" clip-path="url(#pa577d0a56e)" style="fill: #1f77b4"/>
   </g>
   <g id="patch_39">
    <path d="M 118.546909 273.312 
L 120.158419 273.312 
L 120.158419 152.384914 
L 118.546909 152.384914 
z
" clip-path="url(#pa577d0a56e)" style="fill: #1f77b4"/>
   </g>
   <g id="patch_40">
    <path d="M 120.158419 273.312 
L 121.76993 273.312 
L 121.76993 148.040229 
L 120.158419 148.040229 
z
" clip-path="url(#pa577d0a56e)" style="fill: #1f77b4"/>
   </g>
   <g id="patch_41">
    <path d="M 121.76993 273.312 
L 123.38144 273.312 
L 123.38144 148.040229 
L 121.76993 148.040229 
z
" clip-path="url(#pa577d0a56e)" style="fill: #1f77b4"/>
   </g>
   <g id="patch_42">
    <path d="M 123.38144 273.312 
L 124.99295 273.312 
L 124.99295 151.6608 
L 123.38144 151.6608 
z
" clip-path="url(#pa577d0a56e)" style="fill: #1f77b4"/>
   </g>
   <g id="patch_43">
    <path d="M 124.99295 273.312 
L 126.60446 273.312 
L 126.60446 143.695543 
L 124.99295 143.695543 
z
" clip-path="url(#pa577d0a56e)" style="fill: #1f77b4"/>
   </g>
   <g id="patch_44">
    <path d="M 126.60446 273.312 
L 128.21597 273.312 
L 128.21597 140.074971 
L 126.60446 140.074971 
z
" clip-path="url(#pa577d0a56e)" style="fill: #1f77b4"/>
   </g>
   <g id="patch_45">
    <path d="M 128.21597 273.312 
L 129.82748 273.312 
L 129.82748 153.833143 
L 128.21597 153.833143 
z
" clip-path="url(#pa577d0a56e)" style="fill: #1f77b4"/>
   </g>
   <g id="patch_46">
    <path d="M 129.82748 273.312 
L 131.43899 273.312 
L 131.43899 128.489143 
L 129.82748 128.489143 
z
" clip-path="url(#pa577d0a56e)" style="fill: #1f77b4"/>
   </g>
   <g id="patch_47">
    <path d="M 131.43899 273.312 
L 133.0505 273.312 
L 133.0505 125.592686 
L 131.43899 125.592686 
z
" clip-path="url(#pa577d0a56e)" style="fill: #1f77b4"/>
   </g>
   <g id="patch_48">
    <path d="M 133.0505 273.312 
L 134.662011 273.312 
L 134.662011 158.901943 
L 133.0505 158.901943 
z
" clip-path="url(#pa577d0a56e)" style="fill: #1f77b4"/>
   </g>
   <g id="patch_49">
    <path d="M 134.662011 273.312 
L 136.273521 273.312 
L 136.273521 122.696229 
L 134.662011 122.696229 
z
" clip-path="url(#pa577d0a56e)" style="fill: #1f77b4"/>
   </g>
   <g id="patch_50">
    <path d="M 136.273521 273.312 
L 137.885031 273.312 
L 137.885031 123.420343 
L 136.273521 123.420343 
z
" clip-path="url(#pa577d0a56e)" style="fill: #1f77b4"/>
   </g>
   <g id="patch_51">
    <path d="M 137.885031 273.312 
L 139.496541 273.312 
L 139.496541 111.1104 
L 137.885031 111.1104 
z
" clip-path="url(#pa577d0a56e)" style="fill: #1f77b4"/>
   </g>
   <g id="patch_52">
    <path d="M 139.496541 273.312 
L 141.108051 273.312 
L 141.108051 106.0416 
L 139.496541 106.0416 
z
" clip-path="url(#pa577d0a56e)" style="fill: #1f77b4"/>
   </g>
   <g id="patch_53">
    <path d="M 141.108051 273.312 
L 142.719561 273.312 
L 142.719561 112.558629 
L 141.108051 112.558629 
z
" clip-path="url(#pa577d0a56e)" style="fill: #1f77b4"/>
   </g>
   <g id="patch_54">
    <path d="M 142.719561 273.312 
L 144.331071 273.312 
L 144.331071 108.213943 
L 142.719561 108.213943 
z
" clip-path="url(#pa577d0a56e)" style="fill: #1f77b4"/>
   </g>
   <g id="patch_55">
    <path d="M 144.331071 273.312 
L 145.942581 273.312 
L 145.942581 103.869257 
L 144.331071 103.869257 
z
" clip-path="url(#pa577d0a56e)" style="fill: #1f77b4"/>
   </g>
   <g id="patch_56">
    <path d="M 145.942581 273.312 
L 147.554092 273.312 
L 147.554092 96.628114 
L 145.942581 96.628114 
z
" clip-path="url(#pa577d0a56e)" style="fill: #1f77b4"/>
   </g>
   <g id="patch_57">
    <path d="M 147.554092 273.312 
L 149.165602 273.312 
L 149.165602 101.696914 
L 147.554092 101.696914 
z
" clip-path="url(#pa577d0a56e)" style="fill: #1f77b4"/>
   </g>
   <g id="patch_58">
    <path d="M 149.165602 273.312 
L 150.777112 273.312 
L 150.777112 91.559314 
L 149.165602 91.559314 
z
" clip-path="url(#pa577d0a56e)" style="fill: #1f77b4"/>
   </g>
   <g id="patch_59">
    <path d="M 150.777112 273.312 
L 152.388622 273.312 
L 152.388622 111.1104 
L 150.777112 111.1104 
z
" clip-path="url(#pa577d0a56e)" style="fill: #1f77b4"/>
   </g>
   <g id="patch_60">
    <path d="M 152.388622 273.312 
L 154.000132 273.312 
L 154.000132 99.524571 
L 152.388622 99.524571 
z
" clip-path="url(#pa577d0a56e)" style="fill: #1f77b4"/>
   </g>
   <g id="patch_61">
    <path d="M 154.000132 273.312 
L 155.611642 273.312 
L 155.611642 93.731657 
L 154.000132 93.731657 
z
" clip-path="url(#pa577d0a56e)" style="fill: #1f77b4"/>
   </g>
   <g id="patch_62">
    <path d="M 155.611642 273.312 
L 157.223152 273.312 
L 157.223152 85.042286 
L 155.611642 85.042286 
z
" clip-path="url(#pa577d0a56e)" style="fill: #1f77b4"/>
   </g>
   <g id="patch_63">
    <path d="M 157.223152 273.312 
L 158.834662 273.312 
L 158.834662 88.662857 
L 157.223152 88.662857 
z
" clip-path="url(#pa577d0a56e)" style="fill: #1f77b4"/>
   </g>
   <g id="patch_64">
    <path d="M 158.834662 273.312 
L 160.446173 273.312 
L 160.446173 88.662857 
L 158.834662 88.662857 
z
" clip-path="url(#pa577d0a56e)" style="fill: #1f77b4"/>
   </g>
   <g id="patch_65">
    <path d="M 160.446173 273.312 
L 162.057683 273.312 
L 162.057683 91.559314 
L 160.446173 91.559314 
z
" clip-path="url(#pa577d0a56e)" style="fill: #1f77b4"/>
   </g>
   <g id="patch_66">
    <path d="M 162.057683 273.312 
L 163.669193 273.312 
L 163.669193 85.7664 
L 162.057683 85.7664 
z
" clip-path="url(#pa577d0a56e)" style="fill: #1f77b4"/>
   </g>
   <g id="patch_67">
    <path d="M 163.669193 273.312 
L 165.280703 273.312 
L 165.280703 87.938743 
L 163.669193 87.938743 
z
" clip-path="url(#pa577d0a56e)" style="fill: #1f77b4"/>
   </g>
   <g id="patch_68">
    <path d="M 165.280703 273.312 
L 166.892213 273.312 
L 166.892213 112.558629 
L 165.280703 112.558629 
z
" clip-path="url(#pa577d0a56e)" style="fill: #1f77b4"/>
   </g>
   <g id="patch_69">
    <path d="M 166.892213 273.312 
L 168.503723 273.312 
L 168.503723 83.594057 
L 166.892213 83.594057 
z
" clip-path="url(#pa577d0a56e)" style="fill: #1f77b4"/>
   </g>
   <g id="patch_70">
    <path d="M 168.503723 273.312 
L 170.115233 273.312 
L 170.115233 69.835886 
L 168.503723 69.835886 
z
" clip-path="url(#pa577d0a56e)" style="fill: #1f77b4"/>
   </g>
   <g id="patch_71">
    <path d="M 170.115233 273.312 
L 171.726743 273.312 
L 171.726743 64.042971 
L 170.115233 64.042971 
z
" clip-path="url(#pa577d0a56e)" style="fill: #1f77b4"/>
   </g>
   <g id="patch_72">
    <path d="M 171.726743 273.312 
L 173.338253 273.312 
L 173.338253 85.7664 
L 171.726743 85.7664 
z
" clip-path="url(#pa577d0a56e)" style="fill: #1f77b4"/>
   </g>
   <g id="patch_73">
    <path d="M 173.338253 273.312 
L 174.949764 273.312 
L 174.949764 77.801143 
L 173.338253 77.801143 
z
" clip-path="url(#pa577d0a56e)" style="fill: #1f77b4"/>
   </g>
   <g id="patch_74">
    <path d="M 174.949764 273.312 
L 176.561274 273.312 
L 176.561274 51.008914 
L 174.949764 51.008914 
z
" clip-path="url(#pa577d0a56e)" style="fill: #1f77b4"/>
   </g>
   <g id="patch_75">
    <path d="M 176.561274 273.312 
L 178.172784 273.312 
L 178.172784 72.008229 
L 176.561274 72.008229 
z
" clip-path="url(#pa577d0a56e)" style="fill: #1f77b4"/>
   </g>
   <g id="patch_76">
    <path d="M 178.172784 273.312 
L 179.784294 273.312 
L 179.784294 57.525943 
L 178.172784 57.525943 
z
" clip-path="url(#pa577d0a56e)" style="fill: #1f77b4"/>
   </g>
   <g id="patch_77">
    <path d="M 179.784294 273.312 
L 181.395804 273.312 
L 181.395804 61.870629 
L 179.784294 61.870629 
z
" clip-path="url(#pa577d0a56e)" style="fill: #1f77b4"/>
   </g>
   <g id="patch_78">
    <path d="M 181.395804 273.312 
L 183.007314 273.312 
L 183.007314 69.111771 
L 181.395804 69.111771 
z
" clip-path="url(#pa577d0a56e)" style="fill: #1f77b4"/>
   </g>
   <g id="patch_79">
    <path d="M 183.007314 273.312 
L 184.618824 273.312 
L 184.618824 61.870629 
L 183.007314 61.870629 
z
" clip-path="url(#pa577d0a56e)" style="fill: #1f77b4"/>
   </g>
   <g id="patch_80">
    <path d="M 184.618824 273.312 
L 186.230334 273.312 
L 186.230334 48.112457 
L 184.618824 48.112457 
z
" clip-path="url(#pa577d0a56e)" style="fill: #1f77b4"/>
   </g>
   <g id="patch_81">
    <path d="M 186.230334 273.312 
L 187.841845 273.312 
L 187.841845 56.077714 
L 186.230334 56.077714 
z
" clip-path="url(#pa577d0a56e)" style="fill: #1f77b4"/>
   </g>
   <g id="patch_82">
    <path d="M 187.841845 273.312 
L 189.453355 273.312 
L 189.453355 56.801829 
L 187.841845 56.801829 
z
" clip-path="url(#pa577d0a56e)" style="fill: #1f77b4"/>
   </g>
   <g id="patch_83">
    <path d="M 189.453355 273.312 
L 191.064865 273.312 
L 191.064865 70.56 
L 189.453355 70.56 
z
" clip-path="url(#pa577d0a56e)" style="fill: #1f77b4"/>
   </g>
   <g id="patch_84">
    <path d="M 191.064865 273.312 
L 192.676375 273.312 
L 192.676375 61.146514 
L 191.064865 61.146514 
z
" clip-path="url(#pa577d0a56e)" style="fill: #1f77b4"/>
   </g>
   <g id="patch_85">
    <path d="M 192.676375 273.312 
L 194.287885 273.312 
L 194.287885 66.939429 
L 192.676375 66.939429 
z
" clip-path="url(#pa577d0a56e)" style="fill: #1f77b4"/>
   </g>
   <g id="patch_86">
    <path d="M 194.287885 273.312 
L 195.899395 273.312 
L 195.899395 58.250057 
L 194.287885 58.250057 
z
" clip-path="url(#pa577d0a56e)" style="fill: #1f77b4"/>
   </g>
   <g id="patch_87">
    <path d="M 195.899395 273.312 
L 197.510905 273.312 
L 197.510905 50.2848 
L 195.899395 50.2848 
z
" clip-path="url(#pa577d0a56e)" style="fill: #1f77b4"/>
   </g>
   <g id="patch_88">
    <path d="M 197.510905 273.312 
L 199.122415 273.312 
L 199.122415 52.457143 
L 197.510905 52.457143 
z
" clip-path="url(#pa577d0a56e)" style="fill: #1f77b4"/>
   </g>
   <g id="patch_89">
    <path d="M 199.122415 273.312 
L 200.733926 273.312 
L 200.733926 46.664229 
L 199.122415 46.664229 
z
" clip-path="url(#pa577d0a56e)" style="fill: #1f77b4"/>
   </g>
   <g id="patch_90">
    <path d="M 200.733926 273.312 
L 202.345436 273.312 
L 202.345436 19.872 
L 200.733926 19.872 
z
" clip-path="url(#pa577d0a56e)" style="fill: #1f77b4"/>
   </g>
   <g id="patch_91">
    <path d="M 202.345436 273.312 
L 203.956946 273.312 
L 203.956946 45.940114 
L 202.345436 45.940114 
z
" clip-path="url(#pa577d0a56e)" style="fill: #1f77b4"/>
   </g>
   <g id="patch_92">
    <path d="M 203.956946 273.312 
L 205.568456 273.312 
L 205.568456 38.698971 
L 203.956946 38.698971 
z
" clip-path="url(#pa577d0a56e)" style="fill: #1f77b4"/>
   </g>
   <g id="patch_93">
    <path d="M 205.568456 273.312 
L 207.179966 273.312 
L 207.179966 46.664229 
L 205.568456 46.664229 
z
" clip-path="url(#pa577d0a56e)" style="fill: #1f77b4"/>
   </g>
   <g id="patch_94">
    <path d="M 207.179966 273.312 
L 208.791476 273.312 
L 208.791476 63.318857 
L 207.179966 63.318857 
z
" clip-path="url(#pa577d0a56e)" style="fill: #1f77b4"/>
   </g>
   <g id="patch_95">
    <path d="M 208.791476 273.312 
L 210.402986 273.312 
L 210.402986 58.250057 
L 208.791476 58.250057 
z
" clip-path="url(#pa577d0a56e)" style="fill: #1f77b4"/>
   </g>
   <g id="patch_96">
    <path d="M 210.402986 273.312 
L 212.014496 273.312 
L 212.014496 58.250057 
L 210.402986 58.250057 
z
" clip-path="url(#pa577d0a56e)" style="fill: #1f77b4"/>
   </g>
   <g id="patch_97">
    <path d="M 212.014496 273.312 
L 213.626007 273.312 
L 213.626007 46.664229 
L 212.014496 46.664229 
z
" clip-path="url(#pa577d0a56e)" style="fill: #1f77b4"/>
   </g>
   <g id="patch_98">
    <path d="M 213.626007 273.312 
L 215.237517 273.312 
L 215.237517 42.319543 
L 213.626007 42.319543 
z
" clip-path="url(#pa577d0a56e)" style="fill: #1f77b4"/>
   </g>
   <g id="patch_99">
    <path d="M 215.237517 273.312 
L 216.849027 273.312 
L 216.849027 60.4224 
L 215.237517 60.4224 
z
" clip-path="url(#pa577d0a56e)" style="fill: #1f77b4"/>
   </g>
   <g id="patch_100">
    <path d="M 216.849027 273.312 
L 218.460537 273.312 
L 218.460537 35.802514 
L 216.849027 35.802514 
z
" clip-path="url(#pa577d0a56e)" style="fill: #1f77b4"/>
   </g>
   <g id="patch_101">
    <path d="M 218.460537 273.312 
L 220.072047 273.312 
L 220.072047 38.698971 
L 218.460537 38.698971 
z
" clip-path="url(#pa577d0a56e)" style="fill: #1f77b4"/>
   </g>
   <g id="patch_102">
    <path d="M 220.072047 273.312 
L 221.683557 273.312 
L 221.683557 48.112457 
L 220.072047 48.112457 
z
" clip-path="url(#pa577d0a56e)" style="fill: #1f77b4"/>
   </g>
   <g id="patch_103">
    <path d="M 221.683557 273.312 
L 223.295067 273.312 
L 223.295067 48.112457 
L 221.683557 48.112457 
z
" clip-path="url(#pa577d0a56e)" style="fill: #1f77b4"/>
   </g>
   <g id="patch_104">
    <path d="M 223.295067 273.312 
L 224.906577 273.312 
L 224.906577 71.284114 
L 223.295067 71.284114 
z
" clip-path="url(#pa577d0a56e)" style="fill: #1f77b4"/>
   </g>
   <g id="patch_105">
    <path d="M 224.906577 273.312 
L 226.518087 273.312 
L 226.518087 46.664229 
L 224.906577 46.664229 
z
" clip-path="url(#pa577d0a56e)" style="fill: #1f77b4"/>
   </g>
   <g id="patch_106">
    <path d="M 226.518087 273.312 
L 228.129598 273.312 
L 228.129598 56.801829 
L 226.518087 56.801829 
z
" clip-path="url(#pa577d0a56e)" style="fill: #1f77b4"/>
   </g>
   <g id="patch_107">
    <path d="M 228.129598 273.312 
L 229.741108 273.312 
L 229.741108 49.560686 
L 228.129598 49.560686 
z
" clip-path="url(#pa577d0a56e)" style="fill: #1f77b4"/>
   </g>
   <g id="patch_108">
    <path d="M 229.741108 273.312 
L 231.352618 273.312 
L 231.352618 46.664229 
L 229.741108 46.664229 
z
" clip-path="url(#pa577d0a56e)" style="fill: #1f77b4"/>
   </g>
   <g id="patch_109">
    <path d="M 231.352618 273.312 
L 232.964128 273.312 
L 232.964128 30.0096 
L 231.352618 30.0096 
z
" clip-path="url(#pa577d0a56e)" style="fill: #1f77b4"/>
   </g>
   <g id="patch_110">
    <path d="M 232.964128 273.312 
L 234.575638 273.312 
L 234.575638 32.906057 
L 232.964128 32.906057 
z
" clip-path="url(#pa577d0a56e)" style="fill: #1f77b4"/>
   </g>
   <g id="patch_111">
    <path d="M 234.575638 273.312 
L 236.187148 273.312 
L 236.187148 35.802514 
L 234.575638 35.802514 
z
" clip-path="url(#pa577d0a56e)" style="fill: #1f77b4"/>
   </g>
   <g id="patch_112">
    <path d="M 236.187148 273.312 
L 237.798658 273.312 
L 237.798658 29.285486 
L 236.187148 29.285486 
z
" clip-path="url(#pa577d0a56e)" style="fill: #1f77b4"/>
   </g>
   <g id="patch_113">
    <path d="M 237.798658 273.312 
L 239.410168 273.312 
L 239.410168 45.216 
L 237.798658 45.216 
z
" clip-path="url(#pa577d0a56e)" style="fill: #1f77b4"/>
   </g>
   <g id="patch_114">
    <path d="M 239.410168 273.312 
L 241.021679 273.312 
L 241.021679 42.319543 
L 239.410168 42.319543 
z
" clip-path="url(#pa577d0a56e)" style="fill: #1f77b4"/>
   </g>
   <g id="patch_115">
    <path d="M 241.021679 273.312 
L 242.633189 273.312 
L 242.633189 86.490514 
L 241.021679 86.490514 
z
" clip-path="url(#pa577d0a56e)" style="fill: #1f77b4"/>
   </g>
   <g id="patch_116">
    <path d="M 242.633189 273.312 
L 244.244699 273.312 
L 244.244699 45.216 
L 242.633189 45.216 
z
" clip-path="url(#pa577d0a56e)" style="fill: #1f77b4"/>
   </g>
   <g id="patch_117">
    <path d="M 244.244699 273.312 
L 245.856209 273.312 
L 245.856209 48.836571 
L 244.244699 48.836571 
z
" clip-path="url(#pa577d0a56e)" style="fill: #1f77b4"/>
   </g>
   <g id="patch_118">
    <path d="M 245.856209 273.312 
L 247.467719 273.312 
L 247.467719 59.698286 
L 245.856209 59.698286 
z
" clip-path="url(#pa577d0a56e)" style="fill: #1f77b4"/>
   </g>
   <g id="patch_119">
    <path d="M 247.467719 273.312 
L 249.079229 273.312 
L 249.079229 43.767771 
L 247.467719 43.767771 
z
" clip-path="url(#pa577d0a56e)" style="fill: #1f77b4"/>
   </g>
   <g id="patch_120">
    <path d="M 249.079229 273.312 
L 250.690739 273.312 
L 250.690739 56.077714 
L 249.079229 56.077714 
z
" clip-path="url(#pa577d0a56e)" style="fill: #1f77b4"/>
   </g>
   <g id="patch_121">
    <path d="M 250.690739 273.312 
L 252.302249 273.312 
L 252.302249 61.870629 
L 250.690739 61.870629 
z
" clip-path="url(#pa577d0a56e)" style="fill: #1f77b4"/>
   </g>
   <g id="patch_122">
    <path d="M 252.302249 273.312 
L 253.91376 273.312 
L 253.91376 65.4912 
L 252.302249 65.4912 
z
" clip-path="url(#pa577d0a56e)" style="fill: #1f77b4"/>
   </g>
   <g id="patch_123">
    <path d="M 253.91376 273.312 
L 255.52527 273.312 
L 255.52527 68.387657 
L 253.91376 68.387657 
z
" clip-path="url(#pa577d0a56e)" style="fill: #1f77b4"/>
   </g>
   <g id="patch_124">
    <path d="M 255.52527 273.312 
L 257.13678 273.312 
L 257.13678 42.319543 
L 255.52527 42.319543 
z
" clip-path="url(#pa577d0a56e)" style="fill: #1f77b4"/>
   </g>
   <g id="patch_125">
    <path d="M 257.13678 273.312 
L 258.74829 273.312 
L 258.74829 52.457143 
L 257.13678 52.457143 
z
" clip-path="url(#pa577d0a56e)" style="fill: #1f77b4"/>
   </g>
   <g id="patch_126">
    <path d="M 258.74829 273.312 
L 260.3598 273.312 
L 260.3598 59.698286 
L 258.74829 59.698286 
z
" clip-path="url(#pa577d0a56e)" style="fill: #1f77b4"/>
   </g>
   <g id="patch_127">
    <path d="M 260.3598 273.312 
L 261.97131 273.312 
L 261.97131 56.077714 
L 260.3598 56.077714 
z
" clip-path="url(#pa577d0a56e)" style="fill: #1f77b4"/>
   </g>
   <g id="patch_128">
    <path d="M 261.97131 273.312 
L 263.58282 273.312 
L 263.58282 57.525943 
L 261.97131 57.525943 
z
" clip-path="url(#pa577d0a56e)" style="fill: #1f77b4"/>
   </g>
   <g id="patch_129">
    <path d="M 263.58282 273.312 
L 265.19433 273.312 
L 265.19433 56.801829 
L 263.58282 56.801829 
z
" clip-path="url(#pa577d0a56e)" style="fill: #1f77b4"/>
   </g>
   <g id="patch_130">
    <path d="M 265.19433 273.312 
L 266.805841 273.312 
L 266.805841 61.146514 
L 265.19433 61.146514 
z
" clip-path="url(#pa577d0a56e)" style="fill: #1f77b4"/>
   </g>
   <g id="patch_131">
    <path d="M 266.805841 273.312 
L 268.417351 273.312 
L 268.417351 85.042286 
L 266.805841 85.042286 
z
" clip-path="url(#pa577d0a56e)" style="fill: #1f77b4"/>
   </g>
   <g id="patch_132">
    <path d="M 268.417351 273.312 
L 270.028861 273.312 
L 270.028861 70.56 
L 268.417351 70.56 
z
" clip-path="url(#pa577d0a56e)" style="fill: #1f77b4"/>
   </g>
   <g id="patch_133">
    <path d="M 270.028861 273.312 
L 271.640371 273.312 
L 271.640371 74.180571 
L 270.028861 74.180571 
z
" clip-path="url(#pa577d0a56e)" style="fill: #1f77b4"/>
   </g>
   <g id="patch_134">
    <path d="M 271.640371 273.312 
L 273.251881 273.312 
L 273.251881 51.008914 
L 271.640371 51.008914 
z
" clip-path="url(#pa577d0a56e)" style="fill: #1f77b4"/>
   </g>
   <g id="patch_135">
    <path d="M 273.251881 273.312 
L 274.863391 273.312 
L 274.863391 61.870629 
L 273.251881 61.870629 
z
" clip-path="url(#pa577d0a56e)" style="fill: #1f77b4"/>
   </g>
   <g id="patch_136">
    <path d="M 274.863391 273.312 
L 276.474901 273.312 
L 276.474901 79.973486 
L 274.863391 79.973486 
z
" clip-path="url(#pa577d0a56e)" style="fill: #1f77b4"/>
   </g>
   <g id="patch_137">
    <path d="M 276.474901 273.312 
L 278.086411 273.312 
L 278.086411 65.4912 
L 276.474901 65.4912 
z
" clip-path="url(#pa577d0a56e)" style="fill: #1f77b4"/>
   </g>
   <g id="patch_138">
    <path d="M 278.086411 273.312 
L 279.697921 273.312 
L 279.697921 83.594057 
L 278.086411 83.594057 
z
" clip-path="url(#pa577d0a56e)" style="fill: #1f77b4"/>
   </g>
   <g id="patch_139">
    <path d="M 279.697921 273.312 
L 281.309432 273.312 
L 281.309432 75.6288 
L 279.697921 75.6288 
z
" clip-path="url(#pa577d0a56e)" style="fill: #1f77b4"/>
   </g>
   <g id="patch_140">
    <path d="M 281.309432 273.312 
L 282.920942 273.312 
L 282.920942 68.387657 
L 281.309432 68.387657 
z
" clip-path="url(#pa577d0a56e)" style="fill: #1f77b4"/>
   </g>
   <g id="patch_141">
    <path d="M 282.920942 273.312 
L 284.532452 273.312 
L 284.532452 79.973486 
L 282.920942 79.973486 
z
" clip-path="url(#pa577d0a56e)" style="fill: #1f77b4"/>
   </g>
   <g id="patch_142">
    <path d="M 284.532452 273.312 
L 286.143962 273.312 
L 286.143962 104.593371 
L 284.532452 104.593371 
z
" clip-path="url(#pa577d0a56e)" style="fill: #1f77b4"/>
   </g>
   <g id="patch_143">
    <path d="M 286.143962 273.312 
L 287.755472 273.312 
L 287.755472 119.075657 
L 286.143962 119.075657 
z
" clip-path="url(#pa577d0a56e)" style="fill: #1f77b4"/>
   </g>
   <g id="patch_144">
    <path d="M 287.755472 273.312 
L 289.366982 273.312 
L 289.366982 95.179886 
L 287.755472 95.179886 
z
" clip-path="url(#pa577d0a56e)" style="fill: #1f77b4"/>
   </g>
   <g id="patch_145">
    <path d="M 289.366982 273.312 
L 290.978492 273.312 
L 290.978492 98.800457 
L 289.366982 98.800457 
z
" clip-path="url(#pa577d0a56e)" style="fill: #1f77b4"/>
   </g>
   <g id="patch_146">
    <path d="M 290.978492 273.312 
L 292.590002 273.312 
L 292.590002 103.869257 
L 290.978492 103.869257 
z
" clip-path="url(#pa577d0a56e)" style="fill: #1f77b4"/>
   </g>
   <g id="patch_147">
    <path d="M 292.590002 273.312 
L 294.201513 273.312 
L 294.201513 96.628114 
L 292.590002 96.628114 
z
" clip-path="url(#pa577d0a56e)" style="fill: #1f77b4"/>
   </g>
   <g id="patch_148">
    <path d="M 294.201513 273.312 
L 295.813023 273.312 
L 295.813023 103.145143 
L 294.201513 103.145143 
z
" clip-path="url(#pa577d0a56e)" style="fill: #1f77b4"/>
   </g>
   <g id="patch_149">
    <path d="M 295.813023 273.312 
L 297.424533 273.312 
L 297.424533 98.800457 
L 295.813023 98.800457 
z
" clip-path="url(#pa577d0a56e)" style="fill: #1f77b4"/>
   </g>
   <g id="patch_150">
    <path d="M 297.424533 273.312 
L 299.036043 273.312 
L 299.036043 95.904 
L 297.424533 95.904 
z
" clip-path="url(#pa577d0a56e)" style="fill: #1f77b4"/>
   </g>
   <g id="patch_151">
    <path d="M 299.036043 273.312 
L 300.647553 273.312 
L 300.647553 111.834514 
L 299.036043 111.834514 
z
" clip-path="url(#pa577d0a56e)" style="fill: #1f77b4"/>
   </g>
   <g id="patch_152">
    <path d="M 300.647553 273.312 
L 302.259063 273.312 
L 302.259063 114.730971 
L 300.647553 114.730971 
z
" clip-path="url(#pa577d0a56e)" style="fill: #1f77b4"/>
   </g>
   <g id="patch_153">
    <path d="M 302.259063 273.312 
L 303.870573 273.312 
L 303.870573 106.0416 
L 302.259063 106.0416 
z
" clip-path="url(#pa577d0a56e)" style="fill: #1f77b4"/>
   </g>
   <g id="patch_154">
    <path d="M 303.870573 273.312 
L 305.482083 273.312 
L 305.482083 106.765714 
L 303.870573 106.765714 
z
" clip-path="url(#pa577d0a56e)" style="fill: #1f77b4"/>
   </g>
   <g id="patch_155">
    <path d="M 305.482083 273.312 
L 307.093594 273.312 
L 307.093594 123.420343 
L 305.482083 123.420343 
z
" clip-path="url(#pa577d0a56e)" style="fill: #1f77b4"/>
   </g>
   <g id="patch_156">
    <path d="M 307.093594 273.312 
L 308.705104 273.312 
L 308.705104 107.489829 
L 307.093594 107.489829 
z
" clip-path="url(#pa577d0a56e)" style="fill: #1f77b4"/>
   </g>
   <g id="patch_157">
    <path d="M 308.705104 273.312 
L 310.316614 273.312 
L 310.316614 140.074971 
L 308.705104 140.074971 
z
" clip-path="url(#pa577d0a56e)" style="fill: #1f77b4"/>
   </g>
   <g id="patch_158">
    <path d="M 310.316614 273.312 
L 311.928124 273.312 
L 311.928124 124.868571 
L 310.316614 124.868571 
z
" clip-path="url(#pa577d0a56e)" style="fill: #1f77b4"/>
   </g>
   <g id="patch_159">
    <path d="M 311.928124 273.312 
L 313.539634 273.312 
L 313.539634 106.765714 
L 311.928124 106.765714 
z
" clip-path="url(#pa577d0a56e)" style="fill: #1f77b4"/>
   </g>
   <g id="patch_160">
    <path d="M 313.539634 273.312 
L 315.151144 273.312 
L 315.151144 119.799771 
L 313.539634 119.799771 
z
" clip-path="url(#pa577d0a56e)" style="fill: #1f77b4"/>
   </g>
   <g id="patch_161">
    <path d="M 315.151144 273.312 
L 316.762654 273.312 
L 316.762654 133.557943 
L 315.151144 133.557943 
z
" clip-path="url(#pa577d0a56e)" style="fill: #1f77b4"/>
   </g>
   <g id="patch_162">
    <path d="M 316.762654 273.312 
L 318.374164 273.312 
L 318.374164 140.799086 
L 316.762654 140.799086 
z
" clip-path="url(#pa577d0a56e)" style="fill: #1f77b4"/>
   </g>
   <g id="patch_163">
    <path d="M 318.374164 273.312 
L 319.985675 273.312 
L 319.985675 143.695543 
L 318.374164 143.695543 
z
" clip-path="url(#pa577d0a56e)" style="fill: #1f77b4"/>
   </g>
   <g id="patch_164">
    <path d="M 319.985675 273.312 
L 321.597185 273.312 
L 321.597185 141.5232 
L 319.985675 141.5232 
z
" clip-path="url(#pa577d0a56e)" style="fill: #1f77b4"/>
   </g>
   <g id="patch_165">
    <path d="M 321.597185 273.312 
L 323.208695 273.312 
L 323.208695 158.901943 
L 321.597185 158.901943 
z
" clip-path="url(#pa577d0a56e)" style="fill: #1f77b4"/>
   </g>
   <g id="patch_166">
    <path d="M 323.208695 273.312 
L 324.820205 273.312 
L 324.820205 158.177829 
L 323.208695 158.177829 
z
" clip-path="url(#pa577d0a56e)" style="fill: #1f77b4"/>
   </g>
   <g id="patch_167">
    <path d="M 324.820205 273.312 
L 326.431715 273.312 
L 326.431715 163.246629 
L 324.820205 163.246629 
z
" clip-path="url(#pa577d0a56e)" style="fill: #1f77b4"/>
   </g>
   <g id="patch_168">
    <path d="M 326.431715 273.312 
L 328.043225 273.312 
L 328.043225 167.591314 
L 326.431715 167.591314 
z
" clip-path="url(#pa577d0a56e)" style="fill: #1f77b4"/>
   </g>
   <g id="patch_169">
    <path d="M 328.043225 273.312 
L 329.654735 273.312 
L 329.654735 144.419657 
L 328.043225 144.419657 
z
" clip-path="url(#pa577d0a56e)" style="fill: #1f77b4"/>
   </g>
   <g id="patch_170">
    <path d="M 329.654735 273.312 
L 331.266245 273.312 
L 331.266245 146.592 
L 329.654735 146.592 
z
" clip-path="url(#pa577d0a56e)" style="fill: #1f77b4"/>
   </g>
   <g id="patch_171">
    <path d="M 331.266245 273.312 
L 332.877755 273.312 
L 332.877755 169.039543 
L 331.266245 169.039543 
z
" clip-path="url(#pa577d0a56e)" style="fill: #1f77b4"/>
   </g>
   <g id="patch_172">
    <path d="M 332.877755 273.312 
L 334.489266 273.312 
L 334.489266 156.005486 
L 332.877755 156.005486 
z
" clip-path="url(#pa577d0a56e)" style="fill: #1f77b4"/>
   </g>
   <g id="patch_173">
    <path d="M 334.489266 273.312 
L 336.100776 273.312 
L 336.100776 174.832457 
L 334.489266 174.832457 
z
" clip-path="url(#pa577d0a56e)" style="fill: #1f77b4"/>
   </g>
   <g id="patch_174">
    <path d="M 336.100776 273.312 
L 337.712286 273.312 
L 337.712286 173.384229 
L 336.100776 173.384229 
z
" clip-path="url(#pa577d0a56e)" style="fill: #1f77b4"/>
   </g>
   <g id="patch_175">
    <path d="M 337.712286 273.312 
L 339.323796 273.312 
L 339.323796 178.453029 
L 337.712286 178.453029 
z
" clip-path="url(#pa577d0a56e)" style="fill: #1f77b4"/>
   </g>
   <g id="patch_176">
    <path d="M 339.323796 273.312 
L 340.935306 273.312 
L 340.935306 190.038857 
L 339.323796 190.038857 
z
" clip-path="url(#pa577d0a56e)" style="fill: #1f77b4"/>
   </g>
   <g id="patch_177">
    <path d="M 340.935306 273.312 
L 342.546816 273.312 
L 342.546816 167.591314 
L 340.935306 167.591314 
z
" clip-path="url(#pa577d0a56e)" style="fill: #1f77b4"/>
   </g>
   <g id="patch_178">
    <path d="M 342.546816 273.312 
L 344.158326 273.312 
L 344.158326 171.936 
L 342.546816 171.936 
z
" clip-path="url(#pa577d0a56e)" style="fill: #1f77b4"/>
   </g>
   <g id="patch_179">
    <path d="M 344.158326 273.312 
L 345.769836 273.312 
L 345.769836 201.624686 
L 344.158326 201.624686 
z
" clip-path="url(#pa577d0a56e)" style="fill: #1f77b4"/>
   </g>
   <g id="patch_180">
    <path d="M 345.769836 273.312 
L 347.381347 273.312 
L 347.381347 202.3488 
L 345.769836 202.3488 
z
" clip-path="url(#pa577d0a56e)" style="fill: #1f77b4"/>
   </g>
   <g id="patch_181">
    <path d="M 347.381347 273.312 
L 348.992857 273.312 
L 348.992857 196.555886 
L 347.381347 196.555886 
z
" clip-path="url(#pa577d0a56e)" style="fill: #1f77b4"/>
   </g>
   <g id="patch_182">
    <path d="M 348.992857 273.312 
L 350.604367 273.312 
L 350.604367 199.452343 
L 348.992857 199.452343 
z
" clip-path="url(#pa577d0a56e)" style="fill: #1f77b4"/>
   </g>
   <g id="patch_183">
    <path d="M 350.604367 273.312 
L 352.215877 273.312 
L 352.215877 203.072914 
L 350.604367 203.072914 
z
" clip-path="url(#pa577d0a56e)" style="fill: #1f77b4"/>
   </g>
   <g id="patch_184">
    <path d="M 352.215877 273.312 
L 353.827387 273.312 
L 353.827387 216.106971 
L 352.215877 216.106971 
z
" clip-path="url(#pa577d0a56e)" style="fill: #1f77b4"/>
   </g>
   <g id="patch_185">
    <path d="M 353.827387 273.312 
L 355.438897 273.312 
L 355.438897 203.072914 
L 353.827387 203.072914 
z
" clip-path="url(#pa577d0a56e)" style="fill: #1f77b4"/>
   </g>
   <g id="patch_186">
    <path d="M 355.438897 273.312 
L 357.050407 273.312 
L 357.050407 219.003429 
L 355.438897 219.003429 
z
" clip-path="url(#pa577d0a56e)" style="fill: #1f77b4"/>
   </g>
   <g id="patch_187">
    <path d="M 357.050407 273.312 
L 358.661917 273.312 
L 358.661917 201.624686 
L 357.050407 201.624686 
z
" clip-path="url(#pa577d0a56e)" style="fill: #1f77b4"/>
   </g>
   <g id="patch_188">
    <path d="M 358.661917 273.312 
L 360.273428 273.312 
L 360.273428 232.7616 
L 358.661917 232.7616 
z
" clip-path="url(#pa577d0a56e)" style="fill: #1f77b4"/>
   </g>
   <g id="patch_189">
    <path d="M 360.273428 273.312 
L 361.884938 273.312 
L 361.884938 220.451657 
L 360.273428 220.451657 
z
" clip-path="url(#pa577d0a56e)" style="fill: #1f77b4"/>
   </g>
   <g id="patch_190">
    <path d="M 361.884938 273.312 
L 363.496448 273.312 
L 363.496448 225.520457 
L 361.884938 225.520457 
z
" clip-path="url(#pa577d0a56e)" style="fill: #1f77b4"/>
   </g>
   <g id="patch_191">
    <path d="M 363.496448 273.312 
L 365.107958 273.312 
L 365.107958 229.865143 
L 363.496448 229.865143 
z
" clip-path="url(#pa577d0a56e)" style="fill: #1f77b4"/>
   </g>
   <g id="patch_192">
    <path d="M 365.107958 273.312 
L 366.719468 273.312 
L 366.719468 232.7616 
L 365.107958 232.7616 
z
" clip-path="url(#pa577d0a56e)" style="fill: #1f77b4"/>
   </g>
   <g id="patch_193">
    <path d="M 366.719468 273.312 
L 368.330978 273.312 
L 368.330978 237.8304 
L 366.719468 237.8304 
z
" clip-path="url(#pa577d0a56e)" style="fill: #1f77b4"/>
   </g>
   <g id="patch_194">
    <path d="M 368.330978 273.312 
L 369.942488 273.312 
L 369.942488 237.8304 
L 368.330978 237.8304 
z
" clip-path="url(#pa577d0a56e)" style="fill: #1f77b4"/>
   </g>
   <g id="patch_195">
    <path d="M 369.942488 273.312 
L 371.553998 273.312 
L 371.553998 241.450971 
L 369.942488 241.450971 
z
" clip-path="url(#pa577d0a56e)" style="fill: #1f77b4"/>
   </g>
   <g id="patch_196">
    <path d="M 371.553998 273.312 
L 373.165508 273.312 
L 373.165508 241.450971 
L 371.553998 241.450971 
z
" clip-path="url(#pa577d0a56e)" style="fill: #1f77b4"/>
   </g>
   <g id="patch_197">
    <path d="M 373.165508 273.312 
L 374.777019 273.312 
L 374.777019 250.864457 
L 373.165508 250.864457 
z
" clip-path="url(#pa577d0a56e)" style="fill: #1f77b4"/>
   </g>
   <g id="patch_198">
    <path d="M 374.777019 273.312 
L 376.388529 273.312 
L 376.388529 250.140343 
L 374.777019 250.140343 
z
" clip-path="url(#pa577d0a56e)" style="fill: #1f77b4"/>
   </g>
   <g id="patch_199">
    <path d="M 376.388529 273.312 
L 378.000039 273.312 
L 378.000039 258.829714 
L 376.388529 258.829714 
z
" clip-path="url(#pa577d0a56e)" style="fill: #1f77b4"/>
   </g>
   <g id="patch_200">
    <path d="M 378.000039 273.312 
L 379.611549 273.312 
L 379.611549 262.450286 
L 378.000039 262.450286 
z
" clip-path="url(#pa577d0a56e)" style="fill: #1f77b4"/>
   </g>
   <g id="patch_201">
    <path d="M 379.611549 273.312 
L 381.223059 273.312 
L 381.223059 269.691429 
L 379.611549 269.691429 
z
" clip-path="url(#pa577d0a56e)" style="fill: #1f77b4"/>
   </g>
   <g id="patch_202">
    <path d="M 381.223059 273.312 
L 382.834569 273.312 
L 382.834569 264.622629 
L 381.223059 264.622629 
z
" clip-path="url(#pa577d0a56e)" style="fill: #1f77b4"/>
   </g>
   <g id="matplotlib.axis_1">
    <g id="xtick_1">
     <g id="line2d_1">
      <defs>
       <path id="m9dd03b1e58" d="M 0 0 
L 0 3.5 
" style="stroke: #000000; stroke-width: 0.8"/>
      </defs>
      <g>
       <use xlink:href="#m9dd03b1e58" x="60.013977" y="273.312" style="stroke: #000000; stroke-width: 0.8"/>
      </g>
     </g>
     <g id="text_1">
      <!-- 0.0 -->
      <g transform="translate(52.062415 287.910437)scale(0.1 -0.1)">
       <defs>
        <path id="DejaVuSans-30" d="M 2034 4250 
Q 1547 4250 1301 3770 
Q 1056 3291 1056 2328 
Q 1056 1369 1301 889 
Q 1547 409 2034 409 
Q 2525 409 2770 889 
Q 3016 1369 3016 2328 
Q 3016 3291 2770 3770 
Q 2525 4250 2034 4250 
z
M 2034 4750 
Q 2819 4750 3233 4129 
Q 3647 3509 3647 2328 
Q 3647 1150 3233 529 
Q 2819 -91 2034 -91 
Q 1250 -91 836 529 
Q 422 1150 422 2328 
Q 422 3509 836 4129 
Q 1250 4750 2034 4750 
z
" transform="scale(0.015625)"/>
        <path id="DejaVuSans-2e" d="M 684 794 
L 1344 794 
L 1344 0 
L 684 0 
L 684 794 
z
" transform="scale(0.015625)"/>
       </defs>
       <use xlink:href="#DejaVuSans-30"/>
       <use xlink:href="#DejaVuSans-2e" x="63.623047"/>
       <use xlink:href="#DejaVuSans-30" x="95.410156"/>
      </g>
     </g>
    </g>
    <g id="xtick_2">
     <g id="line2d_2">
      <g>
       <use xlink:href="#m9dd03b1e58" x="101.350278" y="273.312" style="stroke: #000000; stroke-width: 0.8"/>
      </g>
     </g>
     <g id="text_2">
      <!-- 0.2 -->
      <g transform="translate(93.398715 287.910437)scale(0.1 -0.1)">
       <defs>
        <path id="DejaVuSans-32" d="M 1228 531 
L 3431 531 
L 3431 0 
L 469 0 
L 469 531 
Q 828 903 1448 1529 
Q 2069 2156 2228 2338 
Q 2531 2678 2651 2914 
Q 2772 3150 2772 3378 
Q 2772 3750 2511 3984 
Q 2250 4219 1831 4219 
Q 1534 4219 1204 4116 
Q 875 4013 500 3803 
L 500 4441 
Q 881 4594 1212 4672 
Q 1544 4750 1819 4750 
Q 2544 4750 2975 4387 
Q 3406 4025 3406 3419 
Q 3406 3131 3298 2873 
Q 3191 2616 2906 2266 
Q 2828 2175 2409 1742 
Q 1991 1309 1228 531 
z
" transform="scale(0.015625)"/>
       </defs>
       <use xlink:href="#DejaVuSans-30"/>
       <use xlink:href="#DejaVuSans-2e" x="63.623047"/>
       <use xlink:href="#DejaVuSans-32" x="95.410156"/>
      </g>
     </g>
    </g>
    <g id="xtick_3">
     <g id="line2d_3">
      <g>
       <use xlink:href="#m9dd03b1e58" x="142.686578" y="273.312" style="stroke: #000000; stroke-width: 0.8"/>
      </g>
     </g>
     <g id="text_3">
      <!-- 0.4 -->
      <g transform="translate(134.735016 287.910437)scale(0.1 -0.1)">
       <defs>
        <path id="DejaVuSans-34" d="M 2419 4116 
L 825 1625 
L 2419 1625 
L 2419 4116 
z
M 2253 4666 
L 3047 4666 
L 3047 1625 
L 3713 1625 
L 3713 1100 
L 3047 1100 
L 3047 0 
L 2419 0 
L 2419 1100 
L 313 1100 
L 313 1709 
L 2253 4666 
z
" transform="scale(0.015625)"/>
       </defs>
       <use xlink:href="#DejaVuSans-30"/>
       <use xlink:href="#DejaVuSans-2e" x="63.623047"/>
       <use xlink:href="#DejaVuSans-34" x="95.410156"/>
      </g>
     </g>
    </g>
    <g id="xtick_4">
     <g id="line2d_4">
      <g>
       <use xlink:href="#m9dd03b1e58" x="184.022879" y="273.312" style="stroke: #000000; stroke-width: 0.8"/>
      </g>
     </g>
     <g id="text_4">
      <!-- 0.6 -->
      <g transform="translate(176.071316 287.910437)scale(0.1 -0.1)">
       <defs>
        <path id="DejaVuSans-36" d="M 2113 2584 
Q 1688 2584 1439 2293 
Q 1191 2003 1191 1497 
Q 1191 994 1439 701 
Q 1688 409 2113 409 
Q 2538 409 2786 701 
Q 3034 994 3034 1497 
Q 3034 2003 2786 2293 
Q 2538 2584 2113 2584 
z
M 3366 4563 
L 3366 3988 
Q 3128 4100 2886 4159 
Q 2644 4219 2406 4219 
Q 1781 4219 1451 3797 
Q 1122 3375 1075 2522 
Q 1259 2794 1537 2939 
Q 1816 3084 2150 3084 
Q 2853 3084 3261 2657 
Q 3669 2231 3669 1497 
Q 3669 778 3244 343 
Q 2819 -91 2113 -91 
Q 1303 -91 875 529 
Q 447 1150 447 2328 
Q 447 3434 972 4092 
Q 1497 4750 2381 4750 
Q 2619 4750 2861 4703 
Q 3103 4656 3366 4563 
z
" transform="scale(0.015625)"/>
       </defs>
       <use xlink:href="#DejaVuSans-30"/>
       <use xlink:href="#DejaVuSans-2e" x="63.623047"/>
       <use xlink:href="#DejaVuSans-36" x="95.410156"/>
      </g>
     </g>
    </g>
    <g id="xtick_5">
     <g id="line2d_5">
      <g>
       <use xlink:href="#m9dd03b1e58" x="225.35918" y="273.312" style="stroke: #000000; stroke-width: 0.8"/>
      </g>
     </g>
     <g id="text_5">
      <!-- 0.8 -->
      <g transform="translate(217.407617 287.910437)scale(0.1 -0.1)">
       <defs>
        <path id="DejaVuSans-38" d="M 2034 2216 
Q 1584 2216 1326 1975 
Q 1069 1734 1069 1313 
Q 1069 891 1326 650 
Q 1584 409 2034 409 
Q 2484 409 2743 651 
Q 3003 894 3003 1313 
Q 3003 1734 2745 1975 
Q 2488 2216 2034 2216 
z
M 1403 2484 
Q 997 2584 770 2862 
Q 544 3141 544 3541 
Q 544 4100 942 4425 
Q 1341 4750 2034 4750 
Q 2731 4750 3128 4425 
Q 3525 4100 3525 3541 
Q 3525 3141 3298 2862 
Q 3072 2584 2669 2484 
Q 3125 2378 3379 2068 
Q 3634 1759 3634 1313 
Q 3634 634 3220 271 
Q 2806 -91 2034 -91 
Q 1263 -91 848 271 
Q 434 634 434 1313 
Q 434 1759 690 2068 
Q 947 2378 1403 2484 
z
M 1172 3481 
Q 1172 3119 1398 2916 
Q 1625 2713 2034 2713 
Q 2441 2713 2670 2916 
Q 2900 3119 2900 3481 
Q 2900 3844 2670 4047 
Q 2441 4250 2034 4250 
Q 1625 4250 1398 4047 
Q 1172 3844 1172 3481 
z
" transform="scale(0.015625)"/>
       </defs>
       <use xlink:href="#DejaVuSans-30"/>
       <use xlink:href="#DejaVuSans-2e" x="63.623047"/>
       <use xlink:href="#DejaVuSans-38" x="95.410156"/>
      </g>
     </g>
    </g>
    <g id="xtick_6">
     <g id="line2d_6">
      <g>
       <use xlink:href="#m9dd03b1e58" x="266.69548" y="273.312" style="stroke: #000000; stroke-width: 0.8"/>
      </g>
     </g>
     <g id="text_6">
      <!-- 1.0 -->
      <g transform="translate(258.743918 287.910437)scale(0.1 -0.1)">
       <defs>
        <path id="DejaVuSans-31" d="M 794 531 
L 1825 531 
L 1825 4091 
L 703 3866 
L 703 4441 
L 1819 4666 
L 2450 4666 
L 2450 531 
L 3481 531 
L 3481 0 
L 794 0 
L 794 531 
z
" transform="scale(0.015625)"/>
       </defs>
       <use xlink:href="#DejaVuSans-31"/>
       <use xlink:href="#DejaVuSans-2e" x="63.623047"/>
       <use xlink:href="#DejaVuSans-30" x="95.410156"/>
      </g>
     </g>
    </g>
    <g id="xtick_7">
     <g id="line2d_7">
      <g>
       <use xlink:href="#m9dd03b1e58" x="308.031781" y="273.312" style="stroke: #000000; stroke-width: 0.8"/>
      </g>
     </g>
     <g id="text_7">
      <!-- 1.2 -->
      <g transform="translate(300.080218 287.910437)scale(0.1 -0.1)">
       <use xlink:href="#DejaVuSans-31"/>
       <use xlink:href="#DejaVuSans-2e" x="63.623047"/>
       <use xlink:href="#DejaVuSans-32" x="95.410156"/>
      </g>
     </g>
    </g>
    <g id="xtick_8">
     <g id="line2d_8">
      <g>
       <use xlink:href="#m9dd03b1e58" x="349.368081" y="273.312" style="stroke: #000000; stroke-width: 0.8"/>
      </g>
     </g>
     <g id="text_8">
      <!-- 1.4 -->
      <g transform="translate(341.416519 287.910437)scale(0.1 -0.1)">
       <use xlink:href="#DejaVuSans-31"/>
       <use xlink:href="#DejaVuSans-2e" x="63.623047"/>
       <use xlink:href="#DejaVuSans-34" x="95.410156"/>
      </g>
     </g>
    </g>
    <g id="xtick_9">
     <g id="line2d_9">
      <g>
       <use xlink:href="#m9dd03b1e58" x="390.704382" y="273.312" style="stroke: #000000; stroke-width: 0.8"/>
      </g>
     </g>
     <g id="text_9">
      <!-- 1.6 -->
      <g transform="translate(382.752819 287.910437)scale(0.1 -0.1)">
       <use xlink:href="#DejaVuSans-31"/>
       <use xlink:href="#DejaVuSans-2e" x="63.623047"/>
       <use xlink:href="#DejaVuSans-36" x="95.410156"/>
      </g>
     </g>
    </g>
    <g id="text_10">
     <!-- Angle with normal (rad) -->
     <g transform="translate(163.023281 301.588562)scale(0.1 -0.1)">
      <defs>
       <path id="DejaVuSans-41" d="M 2188 4044 
L 1331 1722 
L 3047 1722 
L 2188 4044 
z
M 1831 4666 
L 2547 4666 
L 4325 0 
L 3669 0 
L 3244 1197 
L 1141 1197 
L 716 0 
L 50 0 
L 1831 4666 
z
" transform="scale(0.015625)"/>
       <path id="DejaVuSans-6e" d="M 3513 2113 
L 3513 0 
L 2938 0 
L 2938 2094 
Q 2938 2591 2744 2837 
Q 2550 3084 2163 3084 
Q 1697 3084 1428 2787 
Q 1159 2491 1159 1978 
L 1159 0 
L 581 0 
L 581 3500 
L 1159 3500 
L 1159 2956 
Q 1366 3272 1645 3428 
Q 1925 3584 2291 3584 
Q 2894 3584 3203 3211 
Q 3513 2838 3513 2113 
z
" transform="scale(0.015625)"/>
       <path id="DejaVuSans-67" d="M 2906 1791 
Q 2906 2416 2648 2759 
Q 2391 3103 1925 3103 
Q 1463 3103 1205 2759 
Q 947 2416 947 1791 
Q 947 1169 1205 825 
Q 1463 481 1925 481 
Q 2391 481 2648 825 
Q 2906 1169 2906 1791 
z
M 3481 434 
Q 3481 -459 3084 -895 
Q 2688 -1331 1869 -1331 
Q 1566 -1331 1297 -1286 
Q 1028 -1241 775 -1147 
L 775 -588 
Q 1028 -725 1275 -790 
Q 1522 -856 1778 -856 
Q 2344 -856 2625 -561 
Q 2906 -266 2906 331 
L 2906 616 
Q 2728 306 2450 153 
Q 2172 0 1784 0 
Q 1141 0 747 490 
Q 353 981 353 1791 
Q 353 2603 747 3093 
Q 1141 3584 1784 3584 
Q 2172 3584 2450 3431 
Q 2728 3278 2906 2969 
L 2906 3500 
L 3481 3500 
L 3481 434 
z
" transform="scale(0.015625)"/>
       <path id="DejaVuSans-6c" d="M 603 4863 
L 1178 4863 
L 1178 0 
L 603 0 
L 603 4863 
z
" transform="scale(0.015625)"/>
       <path id="DejaVuSans-65" d="M 3597 1894 
L 3597 1613 
L 953 1613 
Q 991 1019 1311 708 
Q 1631 397 2203 397 
Q 2534 397 2845 478 
Q 3156 559 3463 722 
L 3463 178 
Q 3153 47 2828 -22 
Q 2503 -91 2169 -91 
Q 1331 -91 842 396 
Q 353 884 353 1716 
Q 353 2575 817 3079 
Q 1281 3584 2069 3584 
Q 2775 3584 3186 3129 
Q 3597 2675 3597 1894 
z
M 3022 2063 
Q 3016 2534 2758 2815 
Q 2500 3097 2075 3097 
Q 1594 3097 1305 2825 
Q 1016 2553 972 2059 
L 3022 2063 
z
" transform="scale(0.015625)"/>
       <path id="DejaVuSans-20" transform="scale(0.015625)"/>
       <path id="DejaVuSans-77" d="M 269 3500 
L 844 3500 
L 1563 769 
L 2278 3500 
L 2956 3500 
L 3675 769 
L 4391 3500 
L 4966 3500 
L 4050 0 
L 3372 0 
L 2619 2869 
L 1863 0 
L 1184 0 
L 269 3500 
z
" transform="scale(0.015625)"/>
       <path id="DejaVuSans-69" d="M 603 3500 
L 1178 3500 
L 1178 0 
L 603 0 
L 603 3500 
z
M 603 4863 
L 1178 4863 
L 1178 4134 
L 603 4134 
L 603 4863 
z
" transform="scale(0.015625)"/>
       <path id="DejaVuSans-74" d="M 1172 4494 
L 1172 3500 
L 2356 3500 
L 2356 3053 
L 1172 3053 
L 1172 1153 
Q 1172 725 1289 603 
Q 1406 481 1766 481 
L 2356 481 
L 2356 0 
L 1766 0 
Q 1100 0 847 248 
Q 594 497 594 1153 
L 594 3053 
L 172 3053 
L 172 3500 
L 594 3500 
L 594 4494 
L 1172 4494 
z
" transform="scale(0.015625)"/>
       <path id="DejaVuSans-68" d="M 3513 2113 
L 3513 0 
L 2938 0 
L 2938 2094 
Q 2938 2591 2744 2837 
Q 2550 3084 2163 3084 
Q 1697 3084 1428 2787 
Q 1159 2491 1159 1978 
L 1159 0 
L 581 0 
L 581 4863 
L 1159 4863 
L 1159 2956 
Q 1366 3272 1645 3428 
Q 1925 3584 2291 3584 
Q 2894 3584 3203 3211 
Q 3513 2838 3513 2113 
z
" transform="scale(0.015625)"/>
       <path id="DejaVuSans-6f" d="M 1959 3097 
Q 1497 3097 1228 2736 
Q 959 2375 959 1747 
Q 959 1119 1226 758 
Q 1494 397 1959 397 
Q 2419 397 2687 759 
Q 2956 1122 2956 1747 
Q 2956 2369 2687 2733 
Q 2419 3097 1959 3097 
z
M 1959 3584 
Q 2709 3584 3137 3096 
Q 3566 2609 3566 1747 
Q 3566 888 3137 398 
Q 2709 -91 1959 -91 
Q 1206 -91 779 398 
Q 353 888 353 1747 
Q 353 2609 779 3096 
Q 1206 3584 1959 3584 
z
" transform="scale(0.015625)"/>
       <path id="DejaVuSans-72" d="M 2631 2963 
Q 2534 3019 2420 3045 
Q 2306 3072 2169 3072 
Q 1681 3072 1420 2755 
Q 1159 2438 1159 1844 
L 1159 0 
L 581 0 
L 581 3500 
L 1159 3500 
L 1159 2956 
Q 1341 3275 1631 3429 
Q 1922 3584 2338 3584 
Q 2397 3584 2469 3576 
Q 2541 3569 2628 3553 
L 2631 2963 
z
" transform="scale(0.015625)"/>
       <path id="DejaVuSans-6d" d="M 3328 2828 
Q 3544 3216 3844 3400 
Q 4144 3584 4550 3584 
Q 5097 3584 5394 3201 
Q 5691 2819 5691 2113 
L 5691 0 
L 5113 0 
L 5113 2094 
Q 5113 2597 4934 2840 
Q 4756 3084 4391 3084 
Q 3944 3084 3684 2787 
Q 3425 2491 3425 1978 
L 3425 0 
L 2847 0 
L 2847 2094 
Q 2847 2600 2669 2842 
Q 2491 3084 2119 3084 
Q 1678 3084 1418 2786 
Q 1159 2488 1159 1978 
L 1159 0 
L 581 0 
L 581 3500 
L 1159 3500 
L 1159 2956 
Q 1356 3278 1631 3431 
Q 1906 3584 2284 3584 
Q 2666 3584 2933 3390 
Q 3200 3197 3328 2828 
z
" transform="scale(0.015625)"/>
       <path id="DejaVuSans-61" d="M 2194 1759 
Q 1497 1759 1228 1600 
Q 959 1441 959 1056 
Q 959 750 1161 570 
Q 1363 391 1709 391 
Q 2188 391 2477 730 
Q 2766 1069 2766 1631 
L 2766 1759 
L 2194 1759 
z
M 3341 1997 
L 3341 0 
L 2766 0 
L 2766 531 
Q 2569 213 2275 61 
Q 1981 -91 1556 -91 
Q 1019 -91 701 211 
Q 384 513 384 1019 
Q 384 1609 779 1909 
Q 1175 2209 1959 2209 
L 2766 2209 
L 2766 2266 
Q 2766 2663 2505 2880 
Q 2244 3097 1772 3097 
Q 1472 3097 1187 3025 
Q 903 2953 641 2809 
L 641 3341 
Q 956 3463 1253 3523 
Q 1550 3584 1831 3584 
Q 2591 3584 2966 3190 
Q 3341 2797 3341 1997 
z
" transform="scale(0.015625)"/>
       <path id="DejaVuSans-28" d="M 1984 4856 
Q 1566 4138 1362 3434 
Q 1159 2731 1159 2009 
Q 1159 1288 1364 580 
Q 1569 -128 1984 -844 
L 1484 -844 
Q 1016 -109 783 600 
Q 550 1309 550 2009 
Q 550 2706 781 3412 
Q 1013 4119 1484 4856 
L 1984 4856 
z
" transform="scale(0.015625)"/>
       <path id="DejaVuSans-64" d="M 2906 2969 
L 2906 4863 
L 3481 4863 
L 3481 0 
L 2906 0 
L 2906 525 
Q 2725 213 2448 61 
Q 2172 -91 1784 -91 
Q 1150 -91 751 415 
Q 353 922 353 1747 
Q 353 2572 751 3078 
Q 1150 3584 1784 3584 
Q 2172 3584 2448 3432 
Q 2725 3281 2906 2969 
z
M 947 1747 
Q 947 1113 1208 752 
Q 1469 391 1925 391 
Q 2381 391 2643 752 
Q 2906 1113 2906 1747 
Q 2906 2381 2643 2742 
Q 2381 3103 1925 3103 
Q 1469 3103 1208 2742 
Q 947 2381 947 1747 
z
" transform="scale(0.015625)"/>
       <path id="DejaVuSans-29" d="M 513 4856 
L 1013 4856 
Q 1481 4119 1714 3412 
Q 1947 2706 1947 2009 
Q 1947 1309 1714 600 
Q 1481 -109 1013 -844 
L 513 -844 
Q 928 -128 1133 580 
Q 1338 1288 1338 2009 
Q 1338 2731 1133 3434 
Q 928 4138 513 4856 
z
" transform="scale(0.015625)"/>
      </defs>
      <use xlink:href="#DejaVuSans-41"/>
      <use xlink:href="#DejaVuSans-6e" x="68.408203"/>
      <use xlink:href="#DejaVuSans-67" x="131.787109"/>
      <use xlink:href="#DejaVuSans-6c" x="195.263672"/>
      <use xlink:href="#DejaVuSans-65" x="223.046875"/>
      <use xlink:href="#DejaVuSans-20" x="284.570312"/>
      <use xlink:href="#DejaVuSans-77" x="316.357422"/>
      <use xlink:href="#DejaVuSans-69" x="398.144531"/>
      <use xlink:href="#DejaVuSans-74" x="425.927734"/>
      <use xlink:href="#DejaVuSans-68" x="465.136719"/>
      <use xlink:href="#DejaVuSans-20" x="528.515625"/>
      <use xlink:href="#DejaVuSans-6e" x="560.302734"/>
      <use xlink:href="#DejaVuSans-6f" x="623.681641"/>
      <use xlink:href="#DejaVuSans-72" x="684.863281"/>
      <use xlink:href="#DejaVuSans-6d" x="724.226562"/>
      <use xlink:href="#DejaVuSans-61" x="821.638672"/>
      <use xlink:href="#DejaVuSans-6c" x="882.917969"/>
      <use xlink:href="#DejaVuSans-20" x="910.701172"/>
      <use xlink:href="#DejaVuSans-28" x="942.488281"/>
      <use xlink:href="#DejaVuSans-72" x="981.501953"/>
      <use xlink:href="#DejaVuSans-61" x="1022.615234"/>
      <use xlink:href="#DejaVuSans-64" x="1083.894531"/>
      <use xlink:href="#DejaVuSans-29" x="1147.371094"/>
     </g>
    </g>
   </g>
   <g id="matplotlib.axis_2">
    <g id="ytick_1">
     <g id="line2d_10">
      <defs>
       <path id="m29f30e748f" d="M 0 0 
L -3.5 0 
" style="stroke: #000000; stroke-width: 0.8"/>
      </defs>
      <g>
       <use xlink:href="#m29f30e748f" x="43.78125" y="273.312" style="stroke: #000000; stroke-width: 0.8"/>
      </g>
     </g>
     <g id="text_11">
      <!-- 0.0 -->
      <g transform="translate(20.878125 277.111219)scale(0.1 -0.1)">
       <use xlink:href="#DejaVuSans-30"/>
       <use xlink:href="#DejaVuSans-2e" x="63.623047"/>
       <use xlink:href="#DejaVuSans-30" x="95.410156"/>
      </g>
     </g>
    </g>
    <g id="ytick_2">
     <g id="line2d_11">
      <g>
       <use xlink:href="#m29f30e748f" x="43.78125" y="228.144242" style="stroke: #000000; stroke-width: 0.8"/>
      </g>
     </g>
     <g id="text_12">
      <!-- 0.2 -->
      <g transform="translate(20.878125 231.943461)scale(0.1 -0.1)">
       <use xlink:href="#DejaVuSans-30"/>
       <use xlink:href="#DejaVuSans-2e" x="63.623047"/>
       <use xlink:href="#DejaVuSans-32" x="95.410156"/>
      </g>
     </g>
    </g>
    <g id="ytick_3">
     <g id="line2d_12">
      <g>
       <use xlink:href="#m29f30e748f" x="43.78125" y="182.976485" style="stroke: #000000; stroke-width: 0.8"/>
      </g>
     </g>
     <g id="text_13">
      <!-- 0.4 -->
      <g transform="translate(20.878125 186.775704)scale(0.1 -0.1)">
       <use xlink:href="#DejaVuSans-30"/>
       <use xlink:href="#DejaVuSans-2e" x="63.623047"/>
       <use xlink:href="#DejaVuSans-34" x="95.410156"/>
      </g>
     </g>
    </g>
    <g id="ytick_4">
     <g id="line2d_13">
      <g>
       <use xlink:href="#m29f30e748f" x="43.78125" y="137.808727" style="stroke: #000000; stroke-width: 0.8"/>
      </g>
     </g>
     <g id="text_14">
      <!-- 0.6 -->
      <g transform="translate(20.878125 141.607946)scale(0.1 -0.1)">
       <use xlink:href="#DejaVuSans-30"/>
       <use xlink:href="#DejaVuSans-2e" x="63.623047"/>
       <use xlink:href="#DejaVuSans-36" x="95.410156"/>
      </g>
     </g>
    </g>
    <g id="ytick_5">
     <g id="line2d_14">
      <g>
       <use xlink:href="#m29f30e748f" x="43.78125" y="92.64097" style="stroke: #000000; stroke-width: 0.8"/>
      </g>
     </g>
     <g id="text_15">
      <!-- 0.8 -->
      <g transform="translate(20.878125 96.440189)scale(0.1 -0.1)">
       <use xlink:href="#DejaVuSans-30"/>
       <use xlink:href="#DejaVuSans-2e" x="63.623047"/>
       <use xlink:href="#DejaVuSans-38" x="95.410156"/>
      </g>
     </g>
    </g>
    <g id="ytick_6">
     <g id="line2d_15">
      <g>
       <use xlink:href="#m29f30e748f" x="43.78125" y="47.473212" style="stroke: #000000; stroke-width: 0.8"/>
      </g>
     </g>
     <g id="text_16">
      <!-- 1.0 -->
      <g transform="translate(20.878125 51.272431)scale(0.1 -0.1)">
       <use xlink:href="#DejaVuSans-31"/>
       <use xlink:href="#DejaVuSans-2e" x="63.623047"/>
       <use xlink:href="#DejaVuSans-30" x="95.410156"/>
      </g>
     </g>
    </g>
    <g id="text_17">
     <!-- Probability density -->
     <g transform="translate(14.798438 186.606781)rotate(-90)scale(0.1 -0.1)">
      <defs>
       <path id="DejaVuSans-50" d="M 1259 4147 
L 1259 2394 
L 2053 2394 
Q 2494 2394 2734 2622 
Q 2975 2850 2975 3272 
Q 2975 3691 2734 3919 
Q 2494 4147 2053 4147 
L 1259 4147 
z
M 628 4666 
L 2053 4666 
Q 2838 4666 3239 4311 
Q 3641 3956 3641 3272 
Q 3641 2581 3239 2228 
Q 2838 1875 2053 1875 
L 1259 1875 
L 1259 0 
L 628 0 
L 628 4666 
z
" transform="scale(0.015625)"/>
       <path id="DejaVuSans-62" d="M 3116 1747 
Q 3116 2381 2855 2742 
Q 2594 3103 2138 3103 
Q 1681 3103 1420 2742 
Q 1159 2381 1159 1747 
Q 1159 1113 1420 752 
Q 1681 391 2138 391 
Q 2594 391 2855 752 
Q 3116 1113 3116 1747 
z
M 1159 2969 
Q 1341 3281 1617 3432 
Q 1894 3584 2278 3584 
Q 2916 3584 3314 3078 
Q 3713 2572 3713 1747 
Q 3713 922 3314 415 
Q 2916 -91 2278 -91 
Q 1894 -91 1617 61 
Q 1341 213 1159 525 
L 1159 0 
L 581 0 
L 581 4863 
L 1159 4863 
L 1159 2969 
z
" transform="scale(0.015625)"/>
       <path id="DejaVuSans-79" d="M 2059 -325 
Q 1816 -950 1584 -1140 
Q 1353 -1331 966 -1331 
L 506 -1331 
L 506 -850 
L 844 -850 
Q 1081 -850 1212 -737 
Q 1344 -625 1503 -206 
L 1606 56 
L 191 3500 
L 800 3500 
L 1894 763 
L 2988 3500 
L 3597 3500 
L 2059 -325 
z
" transform="scale(0.015625)"/>
       <path id="DejaVuSans-73" d="M 2834 3397 
L 2834 2853 
Q 2591 2978 2328 3040 
Q 2066 3103 1784 3103 
Q 1356 3103 1142 2972 
Q 928 2841 928 2578 
Q 928 2378 1081 2264 
Q 1234 2150 1697 2047 
L 1894 2003 
Q 2506 1872 2764 1633 
Q 3022 1394 3022 966 
Q 3022 478 2636 193 
Q 2250 -91 1575 -91 
Q 1294 -91 989 -36 
Q 684 19 347 128 
L 347 722 
Q 666 556 975 473 
Q 1284 391 1588 391 
Q 1994 391 2212 530 
Q 2431 669 2431 922 
Q 2431 1156 2273 1281 
Q 2116 1406 1581 1522 
L 1381 1569 
Q 847 1681 609 1914 
Q 372 2147 372 2553 
Q 372 3047 722 3315 
Q 1072 3584 1716 3584 
Q 2034 3584 2315 3537 
Q 2597 3491 2834 3397 
z
" transform="scale(0.015625)"/>
      </defs>
      <use xlink:href="#DejaVuSans-50"/>
      <use xlink:href="#DejaVuSans-72" x="58.552734"/>
      <use xlink:href="#DejaVuSans-6f" x="97.416016"/>
      <use xlink:href="#DejaVuSans-62" x="158.597656"/>
      <use xlink:href="#DejaVuSans-61" x="222.074219"/>
      <use xlink:href="#DejaVuSans-62" x="283.353516"/>
      <use xlink:href="#DejaVuSans-69" x="346.830078"/>
      <use xlink:href="#DejaVuSans-6c" x="374.613281"/>
      <use xlink:href="#DejaVuSans-69" x="402.396484"/>
      <use xlink:href="#DejaVuSans-74" x="430.179688"/>
      <use xlink:href="#DejaVuSans-79" x="469.388672"/>
      <use xlink:href="#DejaVuSans-20" x="528.568359"/>
      <use xlink:href="#DejaVuSans-64" x="560.355469"/>
      <use xlink:href="#DejaVuSans-65" x="623.832031"/>
      <use xlink:href="#DejaVuSans-6e" x="685.355469"/>
      <use xlink:href="#DejaVuSans-73" x="748.734375"/>
      <use xlink:href="#DejaVuSans-69" x="800.833984"/>
      <use xlink:href="#DejaVuSans-74" x="828.617188"/>
      <use xlink:href="#DejaVuSans-79" x="867.826172"/>
     </g>
    </g>
   </g>
   <g id="line2d_16">
    <path d="M 60.013977 273.312 
L 79.837728 230.254786 
L 90.237073 208.200602 
L 99.01152 190.095964 
L 106.811029 174.502334 
L 113.960578 160.700273 
L 120.460169 148.618807 
L 126.63478 137.597425 
L 132.484411 127.602297 
L 138.009063 118.590504 
L 143.208736 110.512221 
L 148.408408 102.846009 
L 153.283101 96.050449 
L 158.157794 89.649242 
L 162.707507 84.043152 
L 167.257221 78.803866 
L 171.481954 74.276141 
L 175.706688 70.081019 
L 179.606442 66.50988 
L 183.506197 63.233207 
L 187.405951 60.255666 
L 190.980726 57.79266 
L 194.555501 55.587522 
L 198.130275 53.64289 
L 201.70505 51.961091 
L 205.279825 50.544137 
L 208.52962 49.487255 
L 211.779415 48.651703 
L 215.029211 48.038307 
L 218.279006 47.647675 
L 221.528801 47.480192 
L 224.778596 47.536024 
L 228.028392 47.815116 
L 231.278187 48.317192 
L 234.527982 49.041756 
L 237.777777 49.98809 
L 241.027573 51.15526 
L 244.277368 52.54211 
L 247.852143 54.319734 
L 251.426917 56.359381 
L 255.001692 58.658611 
L 258.576467 61.214672 
L 262.476221 64.292416 
L 266.375976 67.667784 
L 270.27573 71.335968 
L 274.500464 75.634202 
L 278.725198 80.262771 
L 282.949931 85.213938 
L 287.499645 90.897238 
L 292.049358 96.93406 
L 296.924051 103.781077 
L 301.798744 111.005249 
L 306.998416 119.108617 
L 312.523068 128.145626 
L 318.3727 138.165759 
L 324.547311 149.211559 
L 331.046901 161.316441 
L 337.871471 174.502334 
L 345.346 189.436144 
L 353.795468 206.841806 
L 363.544854 227.46956 
L 375.894076 254.159533 
L 384.668523 273.312 
L 384.668523 273.312 
" clip-path="url(#pa577d0a56e)" style="fill: none; stroke: #ff7f0e; stroke-width: 1.5; stroke-linecap: square"/>
   </g>
   <g id="patch_203">
    <path d="M 43.78125 273.312 
L 43.78125 7.2 
" style="fill: none; stroke: #000000; stroke-width: 0.8; stroke-linejoin: miter; stroke-linecap: square"/>
   </g>
   <g id="patch_204">
    <path d="M 400.90125 273.312 
L 400.90125 7.2 
" style="fill: none; stroke: #000000; stroke-width: 0.8; stroke-linejoin: miter; stroke-linecap: square"/>
   </g>
   <g id="patch_205">
    <path d="M 43.78125 273.312 
L 400.90125 273.312 
" style="fill: none; stroke: #000000; stroke-width: 0.8; stroke-linejoin: miter; stroke-linecap: square"/>
   </g>
   <g id="patch_206">
    <path d="M 43.78125 7.2 
L 400.90125 7.2 
" style="fill: none; stroke: #000000; stroke-width: 0.8; stroke-linejoin: miter; stroke-linecap: square"/>
   </g>
  </g>
 </g>
 <defs>
  <clipPath id="pa577d0a56e">
   <rect x="43.78125" y="7.2" width="357.12" height="266.112"/>
  </clipPath>
 </defs>
</svg>
