<?xml version="1.0" encoding="utf-8" standalone="no"?>
<!DOCTYPE svg PUBLIC "-//W3C//DTD SVG 1.1//EN"
  "http://www.w3.org/Graphics/SVG/1.1/DTD/svg11.dtd">
<svg xmlns:xlink="http://www.w3.org/1999/xlink" width="414.46375pt" height="310.86825pt" viewBox="0 0 414.46375 310.86825" xmlns="http://www.w3.org/2000/svg" version="1.1">
 <metadata>
  <rdf:RDF xmlns:dc="http://purl.org/dc/elements/1.1/" xmlns:cc="http://creativecommons.org/ns#" xmlns:rdf="http://www.w3.org/1999/02/22-rdf-syntax-ns#">
   <cc:Work>
    <dc:type rdf:resource="http://purl.org/dc/dcmitype/StillImage"/>
    <dc:date>2022-04-08T00:35:02.018622</dc:date>
    <dc:format>image/svg+xml</dc:format>
    <dc:creator>
     <cc:Agent>
      <dc:title>Matplotlib v3.5.1, https://matplotlib.org/</dc:title>
     </cc:Agent>
    </dc:creator>
   </cc:Work>
  </rdf:RDF>
 </metadata>
 <defs>
  <style type="text/css">*{stroke-linejoin: round; stroke-linecap: butt}</style>
 </defs>
 <g id="figure_1">
  <g id="patch_1">
   <path d="M 0 310.86825 
L 414.46375 310.86825 
L 414.46375 0 
L 0 0 
z
" style="fill: #ffffff"/>
  </g>
  <g id="axes_1">
   <g id="patch_2">
    <path d="M 50.14375 273.312 
L 407.26375 273.312 
L 407.26375 7.2 
L 50.14375 7.2 
z
" style="fill: #ffffff"/>
   </g>
   <g id="patch_3">
    <path d="M 69.257207 273.312 
L 70.866071 273.312 
L 70.866071 269.016407 
L 69.257207 269.016407 
z
" clip-path="url(#pf933a3f051)" style="fill: #1f77b4"/>
   </g>
   <g id="patch_4">
    <path d="M 70.866071 273.312 
L 72.474935 273.312 
L 72.474935 268.402751 
L 70.866071 268.402751 
z
" clip-path="url(#pf933a3f051)" style="fill: #1f77b4"/>
   </g>
   <g id="patch_5">
    <path d="M 72.474935 273.312 
L 74.083799 273.312 
L 74.083799 272.084688 
L 72.474935 272.084688 
z
" clip-path="url(#pf933a3f051)" style="fill: #1f77b4"/>
   </g>
   <g id="patch_6">
    <path d="M 74.083799 273.312 
L 75.692663 273.312 
L 75.692663 266.561782 
L 74.083799 266.561782 
z
" clip-path="url(#pf933a3f051)" style="fill: #1f77b4"/>
   </g>
   <g id="patch_7">
    <path d="M 75.692663 273.312 
L 77.301527 273.312 
L 77.301527 269.630063 
L 75.692663 269.630063 
z
" clip-path="url(#pf933a3f051)" style="fill: #1f77b4"/>
   </g>
   <g id="patch_8">
    <path d="M 77.301527 273.312 
L 78.910391 273.312 
L 78.910391 262.879845 
L 77.301527 262.879845 
z
" clip-path="url(#pf933a3f051)" style="fill: #1f77b4"/>
   </g>
   <g id="patch_9">
    <path d="M 78.910391 273.312 
L 80.519255 273.312 
L 80.519255 265.948126 
L 78.910391 265.948126 
z
" clip-path="url(#pf933a3f051)" style="fill: #1f77b4"/>
   </g>
   <g id="patch_10">
    <path d="M 80.519255 273.312 
L 82.128119 273.312 
L 82.128119 259.811564 
L 80.519255 259.811564 
z
" clip-path="url(#pf933a3f051)" style="fill: #1f77b4"/>
   </g>
   <g id="patch_11">
    <path d="M 82.128119 273.312 
L 83.736983 273.312 
L 83.736983 258.584252 
L 82.128119 258.584252 
z
" clip-path="url(#pf933a3f051)" style="fill: #1f77b4"/>
   </g>
   <g id="patch_12">
    <path d="M 83.736983 273.312 
L 85.345847 273.312 
L 85.345847 261.038877 
L 83.736983 261.038877 
z
" clip-path="url(#pf933a3f051)" style="fill: #1f77b4"/>
   </g>
   <g id="patch_13">
    <path d="M 85.345847 273.312 
L 86.954711 273.312 
L 86.954711 254.902315 
L 85.345847 254.902315 
z
" clip-path="url(#pf933a3f051)" style="fill: #1f77b4"/>
   </g>
   <g id="patch_14">
    <path d="M 86.954711 273.312 
L 88.563575 273.312 
L 88.563575 253.675002 
L 86.954711 253.675002 
z
" clip-path="url(#pf933a3f051)" style="fill: #1f77b4"/>
   </g>
   <g id="patch_15">
    <path d="M 88.563575 273.312 
L 90.172439 273.312 
L 90.172439 257.356939 
L 88.563575 257.356939 
z
" clip-path="url(#pf933a3f051)" style="fill: #1f77b4"/>
   </g>
   <g id="patch_16">
    <path d="M 90.172439 273.312 
L 91.781302 273.312 
L 91.781302 254.902315 
L 90.172439 254.902315 
z
" clip-path="url(#pf933a3f051)" style="fill: #1f77b4"/>
   </g>
   <g id="patch_17">
    <path d="M 91.781302 273.312 
L 93.390166 273.312 
L 93.390166 253.675002 
L 91.781302 253.675002 
z
" clip-path="url(#pf933a3f051)" style="fill: #1f77b4"/>
   </g>
   <g id="patch_18">
    <path d="M 93.390166 273.312 
L 94.99903 273.312 
L 94.99903 254.288659 
L 93.390166 254.288659 
z
" clip-path="url(#pf933a3f051)" style="fill: #1f77b4"/>
   </g>
   <g id="patch_19">
    <path d="M 94.99903 273.312 
L 96.607894 273.312 
L 96.607894 256.129627 
L 94.99903 256.129627 
z
" clip-path="url(#pf933a3f051)" style="fill: #1f77b4"/>
   </g>
   <g id="patch_20">
    <path d="M 96.607894 273.312 
L 98.216758 273.312 
L 98.216758 246.924785 
L 96.607894 246.924785 
z
" clip-path="url(#pf933a3f051)" style="fill: #1f77b4"/>
   </g>
   <g id="patch_21">
    <path d="M 98.216758 273.312 
L 99.825622 273.312 
L 99.825622 249.379409 
L 98.216758 249.379409 
z
" clip-path="url(#pf933a3f051)" style="fill: #1f77b4"/>
   </g>
   <g id="patch_22">
    <path d="M 99.825622 273.312 
L 101.434486 273.312 
L 101.434486 246.924785 
L 99.825622 246.924785 
z
" clip-path="url(#pf933a3f051)" style="fill: #1f77b4"/>
   </g>
   <g id="patch_23">
    <path d="M 101.434486 273.312 
L 103.04335 273.312 
L 103.04335 242.015535 
L 101.434486 242.015535 
z
" clip-path="url(#pf933a3f051)" style="fill: #1f77b4"/>
   </g>
   <g id="patch_24">
    <path d="M 103.04335 273.312 
L 104.652214 273.312 
L 104.652214 246.311128 
L 103.04335 246.311128 
z
" clip-path="url(#pf933a3f051)" style="fill: #1f77b4"/>
   </g>
   <g id="patch_25">
    <path d="M 104.652214 273.312 
L 106.261078 273.312 
L 106.261078 249.379409 
L 104.652214 249.379409 
z
" clip-path="url(#pf933a3f051)" style="fill: #1f77b4"/>
   </g>
   <g id="patch_26">
    <path d="M 106.261078 273.312 
L 107.869942 273.312 
L 107.869942 243.856504 
L 106.261078 243.856504 
z
" clip-path="url(#pf933a3f051)" style="fill: #1f77b4"/>
   </g>
   <g id="patch_27">
    <path d="M 107.869942 273.312 
L 109.478806 273.312 
L 109.478806 235.878973 
L 107.869942 235.878973 
z
" clip-path="url(#pf933a3f051)" style="fill: #1f77b4"/>
   </g>
   <g id="patch_28">
    <path d="M 109.478806 273.312 
L 111.08767 273.312 
L 111.08767 242.629191 
L 109.478806 242.629191 
z
" clip-path="url(#pf933a3f051)" style="fill: #1f77b4"/>
   </g>
   <g id="patch_29">
    <path d="M 111.08767 273.312 
L 112.696534 273.312 
L 112.696534 240.174567 
L 111.08767 240.174567 
z
" clip-path="url(#pf933a3f051)" style="fill: #1f77b4"/>
   </g>
   <g id="patch_30">
    <path d="M 112.696534 273.312 
L 114.305398 273.312 
L 114.305398 237.106286 
L 112.696534 237.106286 
z
" clip-path="url(#pf933a3f051)" style="fill: #1f77b4"/>
   </g>
   <g id="patch_31">
    <path d="M 114.305398 273.312 
L 115.914262 273.312 
L 115.914262 243.242847 
L 114.305398 243.242847 
z
" clip-path="url(#pf933a3f051)" style="fill: #1f77b4"/>
   </g>
   <g id="patch_32">
    <path d="M 115.914262 273.312 
L 117.523126 273.312 
L 117.523126 238.947254 
L 115.914262 238.947254 
z
" clip-path="url(#pf933a3f051)" style="fill: #1f77b4"/>
   </g>
   <g id="patch_33">
    <path d="M 117.523126 273.312 
L 119.13199 273.312 
L 119.13199 233.424349 
L 117.523126 233.424349 
z
" clip-path="url(#pf933a3f051)" style="fill: #1f77b4"/>
   </g>
   <g id="patch_34">
    <path d="M 119.13199 273.312 
L 120.740854 273.312 
L 120.740854 230.969724 
L 119.13199 230.969724 
z
" clip-path="url(#pf933a3f051)" style="fill: #1f77b4"/>
   </g>
   <g id="patch_35">
    <path d="M 120.740854 273.312 
L 122.349718 273.312 
L 122.349718 233.424349 
L 120.740854 233.424349 
z
" clip-path="url(#pf933a3f051)" style="fill: #1f77b4"/>
   </g>
   <g id="patch_36">
    <path d="M 122.349718 273.312 
L 123.958582 273.312 
L 123.958582 234.038005 
L 122.349718 234.038005 
z
" clip-path="url(#pf933a3f051)" style="fill: #1f77b4"/>
   </g>
   <g id="patch_37">
    <path d="M 123.958582 273.312 
L 125.567446 273.312 
L 125.567446 232.197036 
L 123.958582 232.197036 
z
" clip-path="url(#pf933a3f051)" style="fill: #1f77b4"/>
   </g>
   <g id="patch_38">
    <path d="M 125.567446 273.312 
L 127.17631 273.312 
L 127.17631 235.878973 
L 125.567446 235.878973 
z
" clip-path="url(#pf933a3f051)" style="fill: #1f77b4"/>
   </g>
   <g id="patch_39">
    <path d="M 127.17631 273.312 
L 128.785174 273.312 
L 128.785174 230.356068 
L 127.17631 230.356068 
z
" clip-path="url(#pf933a3f051)" style="fill: #1f77b4"/>
   </g>
   <g id="patch_40">
    <path d="M 128.785174 273.312 
L 130.394038 273.312 
L 130.394038 229.128755 
L 128.785174 229.128755 
z
" clip-path="url(#pf933a3f051)" style="fill: #1f77b4"/>
   </g>
   <g id="patch_41">
    <path d="M 130.394038 273.312 
L 132.002902 273.312 
L 132.002902 216.241976 
L 130.394038 216.241976 
z
" clip-path="url(#pf933a3f051)" style="fill: #1f77b4"/>
   </g>
   <g id="patch_42">
    <path d="M 132.002902 273.312 
L 133.611766 273.312 
L 133.611766 219.923913 
L 132.002902 219.923913 
z
" clip-path="url(#pf933a3f051)" style="fill: #1f77b4"/>
   </g>
   <g id="patch_43">
    <path d="M 133.611766 273.312 
L 135.22063 273.312 
L 135.22063 214.401007 
L 133.611766 214.401007 
z
" clip-path="url(#pf933a3f051)" style="fill: #1f77b4"/>
   </g>
   <g id="patch_44">
    <path d="M 135.22063 273.312 
L 136.829494 273.312 
L 136.829494 229.128755 
L 135.22063 229.128755 
z
" clip-path="url(#pf933a3f051)" style="fill: #1f77b4"/>
   </g>
   <g id="patch_45">
    <path d="M 136.829494 273.312 
L 138.438358 273.312 
L 138.438358 226.060475 
L 136.829494 226.060475 
z
" clip-path="url(#pf933a3f051)" style="fill: #1f77b4"/>
   </g>
   <g id="patch_46">
    <path d="M 138.438358 273.312 
L 140.047222 273.312 
L 140.047222 218.6966 
L 138.438358 218.6966 
z
" clip-path="url(#pf933a3f051)" style="fill: #1f77b4"/>
   </g>
   <g id="patch_47">
    <path d="M 140.047222 273.312 
L 141.656086 273.312 
L 141.656086 215.62832 
L 140.047222 215.62832 
z
" clip-path="url(#pf933a3f051)" style="fill: #1f77b4"/>
   </g>
   <g id="patch_48">
    <path d="M 141.656086 273.312 
L 143.26495 273.312 
L 143.26495 220.537569 
L 141.656086 220.537569 
z
" clip-path="url(#pf933a3f051)" style="fill: #1f77b4"/>
   </g>
   <g id="patch_49">
    <path d="M 143.26495 273.312 
L 144.873813 273.312 
L 144.873813 213.787351 
L 143.26495 213.787351 
z
" clip-path="url(#pf933a3f051)" style="fill: #1f77b4"/>
   </g>
   <g id="patch_50">
    <path d="M 144.873813 273.312 
L 146.482677 273.312 
L 146.482677 202.74154 
L 144.873813 202.74154 
z
" clip-path="url(#pf933a3f051)" style="fill: #1f77b4"/>
   </g>
   <g id="patch_51">
    <path d="M 146.482677 273.312 
L 148.091541 273.312 
L 148.091541 223.60585 
L 146.482677 223.60585 
z
" clip-path="url(#pf933a3f051)" style="fill: #1f77b4"/>
   </g>
   <g id="patch_52">
    <path d="M 148.091541 273.312 
L 149.700405 273.312 
L 149.700405 208.878102 
L 148.091541 208.878102 
z
" clip-path="url(#pf933a3f051)" style="fill: #1f77b4"/>
   </g>
   <g id="patch_53">
    <path d="M 149.700405 273.312 
L 151.309269 273.312 
L 151.309269 201.514228 
L 149.700405 201.514228 
z
" clip-path="url(#pf933a3f051)" style="fill: #1f77b4"/>
   </g>
   <g id="patch_54">
    <path d="M 151.309269 273.312 
L 152.918133 273.312 
L 152.918133 207.650789 
L 151.309269 207.650789 
z
" clip-path="url(#pf933a3f051)" style="fill: #1f77b4"/>
   </g>
   <g id="patch_55">
    <path d="M 152.918133 273.312 
L 154.526997 273.312 
L 154.526997 197.832291 
L 152.918133 197.832291 
z
" clip-path="url(#pf933a3f051)" style="fill: #1f77b4"/>
   </g>
   <g id="patch_56">
    <path d="M 154.526997 273.312 
L 156.135861 273.312 
L 156.135861 217.469288 
L 154.526997 217.469288 
z
" clip-path="url(#pf933a3f051)" style="fill: #1f77b4"/>
   </g>
   <g id="patch_57">
    <path d="M 156.135861 273.312 
L 157.744725 273.312 
L 157.744725 207.650789 
L 156.135861 207.650789 
z
" clip-path="url(#pf933a3f051)" style="fill: #1f77b4"/>
   </g>
   <g id="patch_58">
    <path d="M 157.744725 273.312 
L 159.353589 273.312 
L 159.353589 212.560039 
L 157.744725 212.560039 
z
" clip-path="url(#pf933a3f051)" style="fill: #1f77b4"/>
   </g>
   <g id="patch_59">
    <path d="M 159.353589 273.312 
L 160.962453 273.312 
L 160.962453 205.809821 
L 159.353589 205.809821 
z
" clip-path="url(#pf933a3f051)" style="fill: #1f77b4"/>
   </g>
   <g id="patch_60">
    <path d="M 160.962453 273.312 
L 162.571317 273.312 
L 162.571317 206.423477 
L 160.962453 206.423477 
z
" clip-path="url(#pf933a3f051)" style="fill: #1f77b4"/>
   </g>
   <g id="patch_61">
    <path d="M 162.571317 273.312 
L 164.180181 273.312 
L 164.180181 208.878102 
L 162.571317 208.878102 
z
" clip-path="url(#pf933a3f051)" style="fill: #1f77b4"/>
   </g>
   <g id="patch_62">
    <path d="M 164.180181 273.312 
L 165.789045 273.312 
L 165.789045 195.377666 
L 164.180181 195.377666 
z
" clip-path="url(#pf933a3f051)" style="fill: #1f77b4"/>
   </g>
   <g id="patch_63">
    <path d="M 165.789045 273.312 
L 167.397909 273.312 
L 167.397909 201.514228 
L 165.789045 201.514228 
z
" clip-path="url(#pf933a3f051)" style="fill: #1f77b4"/>
   </g>
   <g id="patch_64">
    <path d="M 167.397909 273.312 
L 169.006773 273.312 
L 169.006773 199.059603 
L 167.397909 199.059603 
z
" clip-path="url(#pf933a3f051)" style="fill: #1f77b4"/>
   </g>
   <g id="patch_65">
    <path d="M 169.006773 273.312 
L 170.615637 273.312 
L 170.615637 198.445947 
L 169.006773 198.445947 
z
" clip-path="url(#pf933a3f051)" style="fill: #1f77b4"/>
   </g>
   <g id="patch_66">
    <path d="M 170.615637 273.312 
L 172.224501 273.312 
L 172.224501 189.241104 
L 170.615637 189.241104 
z
" clip-path="url(#pf933a3f051)" style="fill: #1f77b4"/>
   </g>
   <g id="patch_67">
    <path d="M 172.224501 273.312 
L 173.833365 273.312 
L 173.833365 197.832291 
L 172.224501 197.832291 
z
" clip-path="url(#pf933a3f051)" style="fill: #1f77b4"/>
   </g>
   <g id="patch_68">
    <path d="M 173.833365 273.312 
L 175.442229 273.312 
L 175.442229 188.627448 
L 173.833365 188.627448 
z
" clip-path="url(#pf933a3f051)" style="fill: #1f77b4"/>
   </g>
   <g id="patch_69">
    <path d="M 175.442229 273.312 
L 177.051093 273.312 
L 177.051093 177.581637 
L 175.442229 177.581637 
z
" clip-path="url(#pf933a3f051)" style="fill: #1f77b4"/>
   </g>
   <g id="patch_70">
    <path d="M 177.051093 273.312 
L 178.659957 273.312 
L 178.659957 187.400136 
L 177.051093 187.400136 
z
" clip-path="url(#pf933a3f051)" style="fill: #1f77b4"/>
   </g>
   <g id="patch_71">
    <path d="M 178.659957 273.312 
L 180.268821 273.312 
L 180.268821 185.559167 
L 178.659957 185.559167 
z
" clip-path="url(#pf933a3f051)" style="fill: #1f77b4"/>
   </g>
   <g id="patch_72">
    <path d="M 180.268821 273.312 
L 181.877685 273.312 
L 181.877685 197.218634 
L 180.268821 197.218634 
z
" clip-path="url(#pf933a3f051)" style="fill: #1f77b4"/>
   </g>
   <g id="patch_73">
    <path d="M 181.877685 273.312 
L 183.486549 273.312 
L 183.486549 181.263574 
L 181.877685 181.263574 
z
" clip-path="url(#pf933a3f051)" style="fill: #1f77b4"/>
   </g>
   <g id="patch_74">
    <path d="M 183.486549 273.312 
L 185.095413 273.312 
L 185.095413 178.808949 
L 183.486549 178.808949 
z
" clip-path="url(#pf933a3f051)" style="fill: #1f77b4"/>
   </g>
   <g id="patch_75">
    <path d="M 185.095413 273.312 
L 186.704277 273.312 
L 186.704277 192.309385 
L 185.095413 192.309385 
z
" clip-path="url(#pf933a3f051)" style="fill: #1f77b4"/>
   </g>
   <g id="patch_76">
    <path d="M 186.704277 273.312 
L 188.313141 273.312 
L 188.313141 186.172823 
L 186.704277 186.172823 
z
" clip-path="url(#pf933a3f051)" style="fill: #1f77b4"/>
   </g>
   <g id="patch_77">
    <path d="M 188.313141 273.312 
L 189.922005 273.312 
L 189.922005 175.740668 
L 188.313141 175.740668 
z
" clip-path="url(#pf933a3f051)" style="fill: #1f77b4"/>
   </g>
   <g id="patch_78">
    <path d="M 189.922005 273.312 
L 191.530869 273.312 
L 191.530869 167.149482 
L 189.922005 167.149482 
z
" clip-path="url(#pf933a3f051)" style="fill: #1f77b4"/>
   </g>
   <g id="patch_79">
    <path d="M 191.530869 273.312 
L 193.139733 273.312 
L 193.139733 176.967981 
L 191.530869 176.967981 
z
" clip-path="url(#pf933a3f051)" style="fill: #1f77b4"/>
   </g>
   <g id="patch_80">
    <path d="M 193.139733 273.312 
L 194.748597 273.312 
L 194.748597 184.331855 
L 193.139733 184.331855 
z
" clip-path="url(#pf933a3f051)" style="fill: #1f77b4"/>
   </g>
   <g id="patch_81">
    <path d="M 194.748597 273.312 
L 196.357461 273.312 
L 196.357461 177.581637 
L 194.748597 177.581637 
z
" clip-path="url(#pf933a3f051)" style="fill: #1f77b4"/>
   </g>
   <g id="patch_82">
    <path d="M 196.357461 273.312 
L 197.966324 273.312 
L 197.966324 178.195293 
L 196.357461 178.195293 
z
" clip-path="url(#pf933a3f051)" style="fill: #1f77b4"/>
   </g>
   <g id="patch_83">
    <path d="M 197.966324 273.312 
L 199.575188 273.312 
L 199.575188 167.149482 
L 197.966324 167.149482 
z
" clip-path="url(#pf933a3f051)" style="fill: #1f77b4"/>
   </g>
   <g id="patch_84">
    <path d="M 199.575188 273.312 
L 201.184052 273.312 
L 201.184052 167.763138 
L 199.575188 167.763138 
z
" clip-path="url(#pf933a3f051)" style="fill: #1f77b4"/>
   </g>
   <g id="patch_85">
    <path d="M 201.184052 273.312 
L 202.792916 273.312 
L 202.792916 170.831419 
L 201.184052 170.831419 
z
" clip-path="url(#pf933a3f051)" style="fill: #1f77b4"/>
   </g>
   <g id="patch_86">
    <path d="M 202.792916 273.312 
L 204.40178 273.312 
L 204.40178 171.445075 
L 202.792916 171.445075 
z
" clip-path="url(#pf933a3f051)" style="fill: #1f77b4"/>
   </g>
   <g id="patch_87">
    <path d="M 204.40178 273.312 
L 206.010644 273.312 
L 206.010644 163.467545 
L 204.40178 163.467545 
z
" clip-path="url(#pf933a3f051)" style="fill: #1f77b4"/>
   </g>
   <g id="patch_88">
    <path d="M 206.010644 273.312 
L 207.619508 273.312 
L 207.619508 176.967981 
L 206.010644 176.967981 
z
" clip-path="url(#pf933a3f051)" style="fill: #1f77b4"/>
   </g>
   <g id="patch_89">
    <path d="M 207.619508 273.312 
L 209.228372 273.312 
L 209.228372 169.604107 
L 207.619508 169.604107 
z
" clip-path="url(#pf933a3f051)" style="fill: #1f77b4"/>
   </g>
   <g id="patch_90">
    <path d="M 209.228372 273.312 
L 210.837236 273.312 
L 210.837236 167.149482 
L 209.228372 167.149482 
z
" clip-path="url(#pf933a3f051)" style="fill: #1f77b4"/>
   </g>
   <g id="patch_91">
    <path d="M 210.837236 273.312 
L 212.4461 273.312 
L 212.4461 172.672387 
L 210.837236 172.672387 
z
" clip-path="url(#pf933a3f051)" style="fill: #1f77b4"/>
   </g>
   <g id="patch_92">
    <path d="M 212.4461 273.312 
L 214.054964 273.312 
L 214.054964 167.763138 
L 212.4461 167.763138 
z
" clip-path="url(#pf933a3f051)" style="fill: #1f77b4"/>
   </g>
   <g id="patch_93">
    <path d="M 214.054964 273.312 
L 215.663828 273.312 
L 215.663828 184.331855 
L 214.054964 184.331855 
z
" clip-path="url(#pf933a3f051)" style="fill: #1f77b4"/>
   </g>
   <g id="patch_94">
    <path d="M 215.663828 273.312 
L 217.272692 273.312 
L 217.272692 165.922169 
L 215.663828 165.922169 
z
" clip-path="url(#pf933a3f051)" style="fill: #1f77b4"/>
   </g>
   <g id="patch_95">
    <path d="M 217.272692 273.312 
L 218.881556 273.312 
L 218.881556 165.308513 
L 217.272692 165.308513 
z
" clip-path="url(#pf933a3f051)" style="fill: #1f77b4"/>
   </g>
   <g id="patch_96">
    <path d="M 218.881556 273.312 
L 220.49042 273.312 
L 220.49042 146.285172 
L 218.881556 146.285172 
z
" clip-path="url(#pf933a3f051)" style="fill: #1f77b4"/>
   </g>
   <g id="patch_97">
    <path d="M 220.49042 273.312 
L 222.099284 273.312 
L 222.099284 147.512484 
L 220.49042 147.512484 
z
" clip-path="url(#pf933a3f051)" style="fill: #1f77b4"/>
   </g>
   <g id="patch_98">
    <path d="M 222.099284 273.312 
L 223.708148 273.312 
L 223.708148 156.717327 
L 222.099284 156.717327 
z
" clip-path="url(#pf933a3f051)" style="fill: #1f77b4"/>
   </g>
   <g id="patch_99">
    <path d="M 223.708148 273.312 
L 225.317012 273.312 
L 225.317012 145.671516 
L 223.708148 145.671516 
z
" clip-path="url(#pf933a3f051)" style="fill: #1f77b4"/>
   </g>
   <g id="patch_100">
    <path d="M 225.317012 273.312 
L 226.925876 273.312 
L 226.925876 149.967109 
L 225.317012 149.967109 
z
" clip-path="url(#pf933a3f051)" style="fill: #1f77b4"/>
   </g>
   <g id="patch_101">
    <path d="M 226.925876 273.312 
L 228.53474 273.312 
L 228.53474 147.512484 
L 226.925876 147.512484 
z
" clip-path="url(#pf933a3f051)" style="fill: #1f77b4"/>
   </g>
   <g id="patch_102">
    <path d="M 228.53474 273.312 
L 230.143604 273.312 
L 230.143604 151.194421 
L 228.53474 151.194421 
z
" clip-path="url(#pf933a3f051)" style="fill: #1f77b4"/>
   </g>
   <g id="patch_103">
    <path d="M 230.143604 273.312 
L 231.752468 273.312 
L 231.752468 154.876358 
L 230.143604 154.876358 
z
" clip-path="url(#pf933a3f051)" style="fill: #1f77b4"/>
   </g>
   <g id="patch_104">
    <path d="M 231.752468 273.312 
L 233.361332 273.312 
L 233.361332 142.603235 
L 231.752468 142.603235 
z
" clip-path="url(#pf933a3f051)" style="fill: #1f77b4"/>
   </g>
   <g id="patch_105">
    <path d="M 233.361332 273.312 
L 234.970196 273.312 
L 234.970196 122.352581 
L 233.361332 122.352581 
z
" clip-path="url(#pf933a3f051)" style="fill: #1f77b4"/>
   </g>
   <g id="patch_106">
    <path d="M 234.970196 273.312 
L 236.57906 273.312 
L 236.57906 152.421734 
L 234.970196 152.421734 
z
" clip-path="url(#pf933a3f051)" style="fill: #1f77b4"/>
   </g>
   <g id="patch_107">
    <path d="M 236.57906 273.312 
L 238.187924 273.312 
L 238.187924 143.216891 
L 236.57906 143.216891 
z
" clip-path="url(#pf933a3f051)" style="fill: #1f77b4"/>
   </g>
   <g id="patch_108">
    <path d="M 238.187924 273.312 
L 239.796788 273.312 
L 239.796788 143.216891 
L 238.187924 143.216891 
z
" clip-path="url(#pf933a3f051)" style="fill: #1f77b4"/>
   </g>
   <g id="patch_109">
    <path d="M 239.796788 273.312 
L 241.405652 273.312 
L 241.405652 159.171952 
L 239.796788 159.171952 
z
" clip-path="url(#pf933a3f051)" style="fill: #1f77b4"/>
   </g>
   <g id="patch_110">
    <path d="M 241.405652 273.312 
L 243.014516 273.312 
L 243.014516 138.921298 
L 241.405652 138.921298 
z
" clip-path="url(#pf933a3f051)" style="fill: #1f77b4"/>
   </g>
   <g id="patch_111">
    <path d="M 243.014516 273.312 
L 244.62338 273.312 
L 244.62338 143.830547 
L 243.014516 143.830547 
z
" clip-path="url(#pf933a3f051)" style="fill: #1f77b4"/>
   </g>
   <g id="patch_112">
    <path d="M 244.62338 273.312 
L 246.232244 273.312 
L 246.232244 123.579893 
L 244.62338 123.579893 
z
" clip-path="url(#pf933a3f051)" style="fill: #1f77b4"/>
   </g>
   <g id="patch_113">
    <path d="M 246.232244 273.312 
L 247.841108 273.312 
L 247.841108 127.875487 
L 246.232244 127.875487 
z
" clip-path="url(#pf933a3f051)" style="fill: #1f77b4"/>
   </g>
   <g id="patch_114">
    <path d="M 247.841108 273.312 
L 249.449972 273.312 
L 249.449972 127.261831 
L 247.841108 127.261831 
z
" clip-path="url(#pf933a3f051)" style="fill: #1f77b4"/>
   </g>
   <g id="patch_115">
    <path d="M 249.449972 273.312 
L 251.058835 273.312 
L 251.058835 138.307642 
L 249.449972 138.307642 
z
" clip-path="url(#pf933a3f051)" style="fill: #1f77b4"/>
   </g>
   <g id="patch_116">
    <path d="M 251.058835 273.312 
L 252.667699 273.312 
L 252.667699 138.307642 
L 251.058835 138.307642 
z
" clip-path="url(#pf933a3f051)" style="fill: #1f77b4"/>
   </g>
   <g id="patch_117">
    <path d="M 252.667699 273.312 
L 254.276563 273.312 
L 254.276563 123.579893 
L 252.667699 123.579893 
z
" clip-path="url(#pf933a3f051)" style="fill: #1f77b4"/>
   </g>
   <g id="patch_118">
    <path d="M 254.276563 273.312 
L 255.885427 273.312 
L 255.885427 116.829676 
L 254.276563 116.829676 
z
" clip-path="url(#pf933a3f051)" style="fill: #1f77b4"/>
   </g>
   <g id="patch_119">
    <path d="M 255.885427 273.312 
L 257.494291 273.312 
L 257.494291 129.102799 
L 255.885427 129.102799 
z
" clip-path="url(#pf933a3f051)" style="fill: #1f77b4"/>
   </g>
   <g id="patch_120">
    <path d="M 257.494291 273.312 
L 259.103155 273.312 
L 259.103155 140.762266 
L 257.494291 140.762266 
z
" clip-path="url(#pf933a3f051)" style="fill: #1f77b4"/>
   </g>
   <g id="patch_121">
    <path d="M 259.103155 273.312 
L 260.712019 273.312 
L 260.712019 142.603235 
L 259.103155 142.603235 
z
" clip-path="url(#pf933a3f051)" style="fill: #1f77b4"/>
   </g>
   <g id="patch_122">
    <path d="M 260.712019 273.312 
L 262.320883 273.312 
L 262.320883 122.966237 
L 260.712019 122.966237 
z
" clip-path="url(#pf933a3f051)" style="fill: #1f77b4"/>
   </g>
   <g id="patch_123">
    <path d="M 262.320883 273.312 
L 263.929747 273.312 
L 263.929747 124.19355 
L 262.320883 124.19355 
z
" clip-path="url(#pf933a3f051)" style="fill: #1f77b4"/>
   </g>
   <g id="patch_124">
    <path d="M 263.929747 273.312 
L 265.538611 273.312 
L 265.538611 121.738925 
L 263.929747 121.738925 
z
" clip-path="url(#pf933a3f051)" style="fill: #1f77b4"/>
   </g>
   <g id="patch_125">
    <path d="M 265.538611 273.312 
L 267.147475 273.312 
L 267.147475 119.897956 
L 265.538611 119.897956 
z
" clip-path="url(#pf933a3f051)" style="fill: #1f77b4"/>
   </g>
   <g id="patch_126">
    <path d="M 267.147475 273.312 
L 268.756339 273.312 
L 268.756339 127.875487 
L 267.147475 127.875487 
z
" clip-path="url(#pf933a3f051)" style="fill: #1f77b4"/>
   </g>
   <g id="patch_127">
    <path d="M 268.756339 273.312 
L 270.365203 273.312 
L 270.365203 117.443332 
L 268.756339 117.443332 
z
" clip-path="url(#pf933a3f051)" style="fill: #1f77b4"/>
   </g>
   <g id="patch_128">
    <path d="M 270.365203 273.312 
L 271.974067 273.312 
L 271.974067 110.693114 
L 270.365203 110.693114 
z
" clip-path="url(#pf933a3f051)" style="fill: #1f77b4"/>
   </g>
   <g id="patch_129">
    <path d="M 271.974067 273.312 
L 273.582931 273.312 
L 273.582931 135.853017 
L 271.974067 135.853017 
z
" clip-path="url(#pf933a3f051)" style="fill: #1f77b4"/>
   </g>
   <g id="patch_130">
    <path d="M 273.582931 273.312 
L 275.191795 273.312 
L 275.191795 123.579893 
L 273.582931 123.579893 
z
" clip-path="url(#pf933a3f051)" style="fill: #1f77b4"/>
   </g>
   <g id="patch_131">
    <path d="M 275.191795 273.312 
L 276.800659 273.312 
L 276.800659 123.579893 
L 275.191795 123.579893 
z
" clip-path="url(#pf933a3f051)" style="fill: #1f77b4"/>
   </g>
   <g id="patch_132">
    <path d="M 276.800659 273.312 
L 278.409523 273.312 
L 278.409523 101.488271 
L 276.800659 101.488271 
z
" clip-path="url(#pf933a3f051)" style="fill: #1f77b4"/>
   </g>
   <g id="patch_133">
    <path d="M 278.409523 273.312 
L 280.018387 273.312 
L 280.018387 102.101927 
L 278.409523 102.101927 
z
" clip-path="url(#pf933a3f051)" style="fill: #1f77b4"/>
   </g>
   <g id="patch_134">
    <path d="M 280.018387 273.312 
L 281.627251 273.312 
L 281.627251 98.41999 
L 280.018387 98.41999 
z
" clip-path="url(#pf933a3f051)" style="fill: #1f77b4"/>
   </g>
   <g id="patch_135">
    <path d="M 281.627251 273.312 
L 283.236115 273.312 
L 283.236115 101.488271 
L 281.627251 101.488271 
z
" clip-path="url(#pf933a3f051)" style="fill: #1f77b4"/>
   </g>
   <g id="patch_136">
    <path d="M 283.236115 273.312 
L 284.844979 273.312 
L 284.844979 105.783864 
L 283.236115 105.783864 
z
" clip-path="url(#pf933a3f051)" style="fill: #1f77b4"/>
   </g>
   <g id="patch_137">
    <path d="M 284.844979 273.312 
L 286.453843 273.312 
L 286.453843 104.556552 
L 284.844979 104.556552 
z
" clip-path="url(#pf933a3f051)" style="fill: #1f77b4"/>
   </g>
   <g id="patch_138">
    <path d="M 286.453843 273.312 
L 288.062707 273.312 
L 288.062707 103.942896 
L 286.453843 103.942896 
z
" clip-path="url(#pf933a3f051)" style="fill: #1f77b4"/>
   </g>
   <g id="patch_139">
    <path d="M 288.062707 273.312 
L 289.671571 273.312 
L 289.671571 99.647303 
L 288.062707 99.647303 
z
" clip-path="url(#pf933a3f051)" style="fill: #1f77b4"/>
   </g>
   <g id="patch_140">
    <path d="M 289.671571 273.312 
L 291.280435 273.312 
L 291.280435 113.761395 
L 289.671571 113.761395 
z
" clip-path="url(#pf933a3f051)" style="fill: #1f77b4"/>
   </g>
   <g id="patch_141">
    <path d="M 291.280435 273.312 
L 292.889299 273.312 
L 292.889299 114.375051 
L 291.280435 114.375051 
z
" clip-path="url(#pf933a3f051)" style="fill: #1f77b4"/>
   </g>
   <g id="patch_142">
    <path d="M 292.889299 273.312 
L 294.498163 273.312 
L 294.498163 112.534082 
L 292.889299 112.534082 
z
" clip-path="url(#pf933a3f051)" style="fill: #1f77b4"/>
   </g>
   <g id="patch_143">
    <path d="M 294.498163 273.312 
L 296.107027 273.312 
L 296.107027 100.260959 
L 294.498163 100.260959 
z
" clip-path="url(#pf933a3f051)" style="fill: #1f77b4"/>
   </g>
   <g id="patch_144">
    <path d="M 296.107027 273.312 
L 297.715891 273.312 
L 297.715891 112.534082 
L 296.107027 112.534082 
z
" clip-path="url(#pf933a3f051)" style="fill: #1f77b4"/>
   </g>
   <g id="patch_145">
    <path d="M 297.715891 273.312 
L 299.324755 273.312 
L 299.324755 86.146867 
L 297.715891 86.146867 
z
" clip-path="url(#pf933a3f051)" style="fill: #1f77b4"/>
   </g>
   <g id="patch_146">
    <path d="M 299.324755 273.312 
L 300.933619 273.312 
L 300.933619 88.601492 
L 299.324755 88.601492 
z
" clip-path="url(#pf933a3f051)" style="fill: #1f77b4"/>
   </g>
   <g id="patch_147">
    <path d="M 300.933619 273.312 
L 302.542483 273.312 
L 302.542483 95.965366 
L 300.933619 95.965366 
z
" clip-path="url(#pf933a3f051)" style="fill: #1f77b4"/>
   </g>
   <g id="patch_148">
    <path d="M 302.542483 273.312 
L 304.151346 273.312 
L 304.151346 101.488271 
L 302.542483 101.488271 
z
" clip-path="url(#pf933a3f051)" style="fill: #1f77b4"/>
   </g>
   <g id="patch_149">
    <path d="M 304.151346 273.312 
L 305.76021 273.312 
L 305.76021 92.897085 
L 304.151346 92.897085 
z
" clip-path="url(#pf933a3f051)" style="fill: #1f77b4"/>
   </g>
   <g id="patch_150">
    <path d="M 305.76021 273.312 
L 307.369074 273.312 
L 307.369074 95.351709 
L 305.76021 95.351709 
z
" clip-path="url(#pf933a3f051)" style="fill: #1f77b4"/>
   </g>
   <g id="patch_151">
    <path d="M 307.369074 273.312 
L 308.977938 273.312 
L 308.977938 94.738053 
L 307.369074 94.738053 
z
" clip-path="url(#pf933a3f051)" style="fill: #1f77b4"/>
   </g>
   <g id="patch_152">
    <path d="M 308.977938 273.312 
L 310.586802 273.312 
L 310.586802 102.715584 
L 308.977938 102.715584 
z
" clip-path="url(#pf933a3f051)" style="fill: #1f77b4"/>
   </g>
   <g id="patch_153">
    <path d="M 310.586802 273.312 
L 312.195666 273.312 
L 312.195666 96.579022 
L 310.586802 96.579022 
z
" clip-path="url(#pf933a3f051)" style="fill: #1f77b4"/>
   </g>
   <g id="patch_154">
    <path d="M 312.195666 273.312 
L 313.80453 273.312 
L 313.80453 85.533211 
L 312.195666 85.533211 
z
" clip-path="url(#pf933a3f051)" style="fill: #1f77b4"/>
   </g>
   <g id="patch_155">
    <path d="M 313.80453 273.312 
L 315.413394 273.312 
L 315.413394 78.169337 
L 313.80453 78.169337 
z
" clip-path="url(#pf933a3f051)" style="fill: #1f77b4"/>
   </g>
   <g id="patch_156">
    <path d="M 315.413394 273.312 
L 317.022258 273.312 
L 317.022258 79.396649 
L 315.413394 79.396649 
z
" clip-path="url(#pf933a3f051)" style="fill: #1f77b4"/>
   </g>
   <g id="patch_157">
    <path d="M 317.022258 273.312 
L 318.631122 273.312 
L 318.631122 61.60062 
L 317.022258 61.60062 
z
" clip-path="url(#pf933a3f051)" style="fill: #1f77b4"/>
   </g>
   <g id="patch_158">
    <path d="M 318.631122 273.312 
L 320.239986 273.312 
L 320.239986 77.55568 
L 318.631122 77.55568 
z
" clip-path="url(#pf933a3f051)" style="fill: #1f77b4"/>
   </g>
   <g id="patch_159">
    <path d="M 320.239986 273.312 
L 321.84885 273.312 
L 321.84885 81.237617 
L 320.239986 81.237617 
z
" clip-path="url(#pf933a3f051)" style="fill: #1f77b4"/>
   </g>
   <g id="patch_160">
    <path d="M 321.84885 273.312 
L 323.457714 273.312 
L 323.457714 83.692242 
L 321.84885 83.692242 
z
" clip-path="url(#pf933a3f051)" style="fill: #1f77b4"/>
   </g>
   <g id="patch_161">
    <path d="M 323.457714 273.312 
L 325.066578 273.312 
L 325.066578 77.55568 
L 323.457714 77.55568 
z
" clip-path="url(#pf933a3f051)" style="fill: #1f77b4"/>
   </g>
   <g id="patch_162">
    <path d="M 325.066578 273.312 
L 326.675442 273.312 
L 326.675442 88.601492 
L 325.066578 88.601492 
z
" clip-path="url(#pf933a3f051)" style="fill: #1f77b4"/>
   </g>
   <g id="patch_163">
    <path d="M 326.675442 273.312 
L 328.284306 273.312 
L 328.284306 77.55568 
L 326.675442 77.55568 
z
" clip-path="url(#pf933a3f051)" style="fill: #1f77b4"/>
   </g>
   <g id="patch_164">
    <path d="M 328.284306 273.312 
L 329.89317 273.312 
L 329.89317 82.46493 
L 328.284306 82.46493 
z
" clip-path="url(#pf933a3f051)" style="fill: #1f77b4"/>
   </g>
   <g id="patch_165">
    <path d="M 329.89317 273.312 
L 331.502034 273.312 
L 331.502034 74.4874 
L 329.89317 74.4874 
z
" clip-path="url(#pf933a3f051)" style="fill: #1f77b4"/>
   </g>
   <g id="patch_166">
    <path d="M 331.502034 273.312 
L 333.110898 273.312 
L 333.110898 75.714712 
L 331.502034 75.714712 
z
" clip-path="url(#pf933a3f051)" style="fill: #1f77b4"/>
   </g>
   <g id="patch_167">
    <path d="M 333.110898 273.312 
L 334.719762 273.312 
L 334.719762 68.350838 
L 333.110898 68.350838 
z
" clip-path="url(#pf933a3f051)" style="fill: #1f77b4"/>
   </g>
   <g id="patch_168">
    <path d="M 334.719762 273.312 
L 336.328626 273.312 
L 336.328626 70.191806 
L 334.719762 70.191806 
z
" clip-path="url(#pf933a3f051)" style="fill: #1f77b4"/>
   </g>
   <g id="patch_169">
    <path d="M 336.328626 273.312 
L 337.93749 273.312 
L 337.93749 65.896213 
L 336.328626 65.896213 
z
" clip-path="url(#pf933a3f051)" style="fill: #1f77b4"/>
   </g>
   <g id="patch_170">
    <path d="M 337.93749 273.312 
L 339.546354 273.312 
L 339.546354 59.759651 
L 337.93749 59.759651 
z
" clip-path="url(#pf933a3f051)" style="fill: #1f77b4"/>
   </g>
   <g id="patch_171">
    <path d="M 339.546354 273.312 
L 341.155218 273.312 
L 341.155218 64.055245 
L 339.546354 64.055245 
z
" clip-path="url(#pf933a3f051)" style="fill: #1f77b4"/>
   </g>
   <g id="patch_172">
    <path d="M 341.155218 273.312 
L 342.764082 273.312 
L 342.764082 65.896213 
L 341.155218 65.896213 
z
" clip-path="url(#pf933a3f051)" style="fill: #1f77b4"/>
   </g>
   <g id="patch_173">
    <path d="M 342.764082 273.312 
L 344.372946 273.312 
L 344.372946 71.419119 
L 342.764082 71.419119 
z
" clip-path="url(#pf933a3f051)" style="fill: #1f77b4"/>
   </g>
   <g id="patch_174">
    <path d="M 344.372946 273.312 
L 345.98181 273.312 
L 345.98181 54.850402 
L 344.372946 54.850402 
z
" clip-path="url(#pf933a3f051)" style="fill: #1f77b4"/>
   </g>
   <g id="patch_175">
    <path d="M 345.98181 273.312 
L 347.590674 273.312 
L 347.590674 51.782121 
L 345.98181 51.782121 
z
" clip-path="url(#pf933a3f051)" style="fill: #1f77b4"/>
   </g>
   <g id="patch_176">
    <path d="M 347.590674 273.312 
L 349.199538 273.312 
L 349.199538 91.669772 
L 347.590674 91.669772 
z
" clip-path="url(#pf933a3f051)" style="fill: #1f77b4"/>
   </g>
   <g id="patch_177">
    <path d="M 349.199538 273.312 
L 350.808402 273.312 
L 350.808402 65.896213 
L 349.199538 65.896213 
z
" clip-path="url(#pf933a3f051)" style="fill: #1f77b4"/>
   </g>
   <g id="patch_178">
    <path d="M 350.808402 273.312 
L 352.417266 273.312 
L 352.417266 70.805462 
L 350.808402 70.805462 
z
" clip-path="url(#pf933a3f051)" style="fill: #1f77b4"/>
   </g>
   <g id="patch_179">
    <path d="M 352.417266 273.312 
L 354.02613 273.312 
L 354.02613 67.123525 
L 352.417266 67.123525 
z
" clip-path="url(#pf933a3f051)" style="fill: #1f77b4"/>
   </g>
   <g id="patch_180">
    <path d="M 354.02613 273.312 
L 355.634994 273.312 
L 355.634994 53.009433 
L 354.02613 53.009433 
z
" clip-path="url(#pf933a3f051)" style="fill: #1f77b4"/>
   </g>
   <g id="patch_181">
    <path d="M 355.634994 273.312 
L 357.243857 273.312 
L 357.243857 54.236746 
L 355.634994 54.236746 
z
" clip-path="url(#pf933a3f051)" style="fill: #1f77b4"/>
   </g>
   <g id="patch_182">
    <path d="M 357.243857 273.312 
L 358.852721 273.312 
L 358.852721 48.71384 
L 357.243857 48.71384 
z
" clip-path="url(#pf933a3f051)" style="fill: #1f77b4"/>
   </g>
   <g id="patch_183">
    <path d="M 358.852721 273.312 
L 360.461585 273.312 
L 360.461585 66.509869 
L 358.852721 66.509869 
z
" clip-path="url(#pf933a3f051)" style="fill: #1f77b4"/>
   </g>
   <g id="patch_184">
    <path d="M 360.461585 273.312 
L 362.070449 273.312 
L 362.070449 46.872872 
L 360.461585 46.872872 
z
" clip-path="url(#pf933a3f051)" style="fill: #1f77b4"/>
   </g>
   <g id="patch_185">
    <path d="M 362.070449 273.312 
L 363.679313 273.312 
L 363.679313 43.804591 
L 362.070449 43.804591 
z
" clip-path="url(#pf933a3f051)" style="fill: #1f77b4"/>
   </g>
   <g id="patch_186">
    <path d="M 363.679313 273.312 
L 365.288177 273.312 
L 365.288177 41.963622 
L 363.679313 41.963622 
z
" clip-path="url(#pf933a3f051)" style="fill: #1f77b4"/>
   </g>
   <g id="patch_187">
    <path d="M 365.288177 273.312 
L 366.897041 273.312 
L 366.897041 45.645559 
L 365.288177 45.645559 
z
" clip-path="url(#pf933a3f051)" style="fill: #1f77b4"/>
   </g>
   <g id="patch_188">
    <path d="M 366.897041 273.312 
L 368.505905 273.312 
L 368.505905 41.349966 
L 366.897041 41.349966 
z
" clip-path="url(#pf933a3f051)" style="fill: #1f77b4"/>
   </g>
   <g id="patch_189">
    <path d="M 368.505905 273.312 
L 370.114769 273.312 
L 370.114769 49.327496 
L 368.505905 49.327496 
z
" clip-path="url(#pf933a3f051)" style="fill: #1f77b4"/>
   </g>
   <g id="patch_190">
    <path d="M 370.114769 273.312 
L 371.723633 273.312 
L 371.723633 67.123525 
L 370.114769 67.123525 
z
" clip-path="url(#pf933a3f051)" style="fill: #1f77b4"/>
   </g>
   <g id="patch_191">
    <path d="M 371.723633 273.312 
L 373.332497 273.312 
L 373.332497 58.532339 
L 371.723633 58.532339 
z
" clip-path="url(#pf933a3f051)" style="fill: #1f77b4"/>
   </g>
   <g id="patch_192">
    <path d="M 373.332497 273.312 
L 374.941361 273.312 
L 374.941361 52.395777 
L 373.332497 52.395777 
z
" clip-path="url(#pf933a3f051)" style="fill: #1f77b4"/>
   </g>
   <g id="patch_193">
    <path d="M 374.941361 273.312 
L 376.550225 273.312 
L 376.550225 53.009433 
L 374.941361 53.009433 
z
" clip-path="url(#pf933a3f051)" style="fill: #1f77b4"/>
   </g>
   <g id="patch_194">
    <path d="M 376.550225 273.312 
L 378.159089 273.312 
L 378.159089 42.577278 
L 376.550225 42.577278 
z
" clip-path="url(#pf933a3f051)" style="fill: #1f77b4"/>
   </g>
   <g id="patch_195">
    <path d="M 378.159089 273.312 
L 379.767953 273.312 
L 379.767953 53.62309 
L 378.159089 53.62309 
z
" clip-path="url(#pf933a3f051)" style="fill: #1f77b4"/>
   </g>
   <g id="patch_196">
    <path d="M 379.767953 273.312 
L 381.376817 273.312 
L 381.376817 19.872 
L 379.767953 19.872 
z
" clip-path="url(#pf933a3f051)" style="fill: #1f77b4"/>
   </g>
   <g id="patch_197">
    <path d="M 381.376817 273.312 
L 382.985681 273.312 
L 382.985681 19.872 
L 381.376817 19.872 
z
" clip-path="url(#pf933a3f051)" style="fill: #1f77b4"/>
   </g>
   <g id="patch_198">
    <path d="M 382.985681 273.312 
L 384.594545 273.312 
L 384.594545 47.486528 
L 382.985681 47.486528 
z
" clip-path="url(#pf933a3f051)" style="fill: #1f77b4"/>
   </g>
   <g id="patch_199">
    <path d="M 384.594545 273.312 
L 386.203409 273.312 
L 386.203409 26.622218 
L 384.594545 26.622218 
z
" clip-path="url(#pf933a3f051)" style="fill: #1f77b4"/>
   </g>
   <g id="patch_200">
    <path d="M 386.203409 273.312 
L 387.812273 273.312 
L 387.812273 27.235874 
L 386.203409 27.235874 
z
" clip-path="url(#pf933a3f051)" style="fill: #1f77b4"/>
   </g>
   <g id="patch_201">
    <path d="M 387.812273 273.312 
L 389.421137 273.312 
L 389.421137 64.055245 
L 387.812273 64.055245 
z
" clip-path="url(#pf933a3f051)" style="fill: #1f77b4"/>
   </g>
   <g id="patch_202">
    <path d="M 389.421137 273.312 
L 391.030001 273.312 
L 391.030001 30.917811 
L 389.421137 30.917811 
z
" clip-path="url(#pf933a3f051)" style="fill: #1f77b4"/>
   </g>
   <g id="matplotlib.axis_1">
    <g id="xtick_1">
     <g id="line2d_1">
      <defs>
       <path id="m0b25196877" d="M 0 0 
L 0 3.5 
" style="stroke: #000000; stroke-width: 0.8"/>
      </defs>
      <g>
       <use xlink:href="#m0b25196877" x="66.376477" y="273.312" style="stroke: #000000; stroke-width: 0.8"/>
      </g>
     </g>
     <g id="text_1">
      <!-- 0.0 -->
      <g transform="translate(58.424915 287.910437)scale(0.1 -0.1)">
       <defs>
        <path id="DejaVuSans-30" d="M 2034 4250 
Q 1547 4250 1301 3770 
Q 1056 3291 1056 2328 
Q 1056 1369 1301 889 
Q 1547 409 2034 409 
Q 2525 409 2770 889 
Q 3016 1369 3016 2328 
Q 3016 3291 2770 3770 
Q 2525 4250 2034 4250 
z
M 2034 4750 
Q 2819 4750 3233 4129 
Q 3647 3509 3647 2328 
Q 3647 1150 3233 529 
Q 2819 -91 2034 -91 
Q 1250 -91 836 529 
Q 422 1150 422 2328 
Q 422 3509 836 4129 
Q 1250 4750 2034 4750 
z
" transform="scale(0.015625)"/>
        <path id="DejaVuSans-2e" d="M 684 794 
L 1344 794 
L 1344 0 
L 684 0 
L 684 794 
z
" transform="scale(0.015625)"/>
       </defs>
       <use xlink:href="#DejaVuSans-30"/>
       <use xlink:href="#DejaVuSans-2e" x="63.623047"/>
       <use xlink:href="#DejaVuSans-30" x="95.410156"/>
      </g>
     </g>
    </g>
    <g id="xtick_2">
     <g id="line2d_2">
      <g>
       <use xlink:href="#m0b25196877" x="131.307386" y="273.312" style="stroke: #000000; stroke-width: 0.8"/>
      </g>
     </g>
     <g id="text_2">
      <!-- 0.2 -->
      <g transform="translate(123.355824 287.910437)scale(0.1 -0.1)">
       <defs>
        <path id="DejaVuSans-32" d="M 1228 531 
L 3431 531 
L 3431 0 
L 469 0 
L 469 531 
Q 828 903 1448 1529 
Q 2069 2156 2228 2338 
Q 2531 2678 2651 2914 
Q 2772 3150 2772 3378 
Q 2772 3750 2511 3984 
Q 2250 4219 1831 4219 
Q 1534 4219 1204 4116 
Q 875 4013 500 3803 
L 500 4441 
Q 881 4594 1212 4672 
Q 1544 4750 1819 4750 
Q 2544 4750 2975 4387 
Q 3406 4025 3406 3419 
Q 3406 3131 3298 2873 
Q 3191 2616 2906 2266 
Q 2828 2175 2409 1742 
Q 1991 1309 1228 531 
z
" transform="scale(0.015625)"/>
       </defs>
       <use xlink:href="#DejaVuSans-30"/>
       <use xlink:href="#DejaVuSans-2e" x="63.623047"/>
       <use xlink:href="#DejaVuSans-32" x="95.410156"/>
      </g>
     </g>
    </g>
    <g id="xtick_3">
     <g id="line2d_3">
      <g>
       <use xlink:href="#m0b25196877" x="196.238295" y="273.312" style="stroke: #000000; stroke-width: 0.8"/>
      </g>
     </g>
     <g id="text_3">
      <!-- 0.4 -->
      <g transform="translate(188.286733 287.910437)scale(0.1 -0.1)">
       <defs>
        <path id="DejaVuSans-34" d="M 2419 4116 
L 825 1625 
L 2419 1625 
L 2419 4116 
z
M 2253 4666 
L 3047 4666 
L 3047 1625 
L 3713 1625 
L 3713 1100 
L 3047 1100 
L 3047 0 
L 2419 0 
L 2419 1100 
L 313 1100 
L 313 1709 
L 2253 4666 
z
" transform="scale(0.015625)"/>
       </defs>
       <use xlink:href="#DejaVuSans-30"/>
       <use xlink:href="#DejaVuSans-2e" x="63.623047"/>
       <use xlink:href="#DejaVuSans-34" x="95.410156"/>
      </g>
     </g>
    </g>
    <g id="xtick_4">
     <g id="line2d_4">
      <g>
       <use xlink:href="#m0b25196877" x="261.169205" y="273.312" style="stroke: #000000; stroke-width: 0.8"/>
      </g>
     </g>
     <g id="text_4">
      <!-- 0.6 -->
      <g transform="translate(253.217642 287.910437)scale(0.1 -0.1)">
       <defs>
        <path id="DejaVuSans-36" d="M 2113 2584 
Q 1688 2584 1439 2293 
Q 1191 2003 1191 1497 
Q 1191 994 1439 701 
Q 1688 409 2113 409 
Q 2538 409 2786 701 
Q 3034 994 3034 1497 
Q 3034 2003 2786 2293 
Q 2538 2584 2113 2584 
z
M 3366 4563 
L 3366 3988 
Q 3128 4100 2886 4159 
Q 2644 4219 2406 4219 
Q 1781 4219 1451 3797 
Q 1122 3375 1075 2522 
Q 1259 2794 1537 2939 
Q 1816 3084 2150 3084 
Q 2853 3084 3261 2657 
Q 3669 2231 3669 1497 
Q 3669 778 3244 343 
Q 2819 -91 2113 -91 
Q 1303 -91 875 529 
Q 447 1150 447 2328 
Q 447 3434 972 4092 
Q 1497 4750 2381 4750 
Q 2619 4750 2861 4703 
Q 3103 4656 3366 4563 
z
" transform="scale(0.015625)"/>
       </defs>
       <use xlink:href="#DejaVuSans-30"/>
       <use xlink:href="#DejaVuSans-2e" x="63.623047"/>
       <use xlink:href="#DejaVuSans-36" x="95.410156"/>
      </g>
     </g>
    </g>
    <g id="xtick_5">
     <g id="line2d_5">
      <g>
       <use xlink:href="#m0b25196877" x="326.100114" y="273.312" style="stroke: #000000; stroke-width: 0.8"/>
      </g>
     </g>
     <g id="text_5">
      <!-- 0.8 -->
      <g transform="translate(318.148551 287.910437)scale(0.1 -0.1)">
       <defs>
        <path id="DejaVuSans-38" d="M 2034 2216 
Q 1584 2216 1326 1975 
Q 1069 1734 1069 1313 
Q 1069 891 1326 650 
Q 1584 409 2034 409 
Q 2484 409 2743 651 
Q 3003 894 3003 1313 
Q 3003 1734 2745 1975 
Q 2488 2216 2034 2216 
z
M 1403 2484 
Q 997 2584 770 2862 
Q 544 3141 544 3541 
Q 544 4100 942 4425 
Q 1341 4750 2034 4750 
Q 2731 4750 3128 4425 
Q 3525 4100 3525 3541 
Q 3525 3141 3298 2862 
Q 3072 2584 2669 2484 
Q 3125 2378 3379 2068 
Q 3634 1759 3634 1313 
Q 3634 634 3220 271 
Q 2806 -91 2034 -91 
Q 1263 -91 848 271 
Q 434 634 434 1313 
Q 434 1759 690 2068 
Q 947 2378 1403 2484 
z
M 1172 3481 
Q 1172 3119 1398 2916 
Q 1625 2713 2034 2713 
Q 2441 2713 2670 2916 
Q 2900 3119 2900 3481 
Q 2900 3844 2670 4047 
Q 2441 4250 2034 4250 
Q 1625 4250 1398 4047 
Q 1172 3844 1172 3481 
z
" transform="scale(0.015625)"/>
       </defs>
       <use xlink:href="#DejaVuSans-30"/>
       <use xlink:href="#DejaVuSans-2e" x="63.623047"/>
       <use xlink:href="#DejaVuSans-38" x="95.410156"/>
      </g>
     </g>
    </g>
    <g id="xtick_6">
     <g id="line2d_6">
      <g>
       <use xlink:href="#m0b25196877" x="391.031023" y="273.312" style="stroke: #000000; stroke-width: 0.8"/>
      </g>
     </g>
     <g id="text_6">
      <!-- 1.0 -->
      <g transform="translate(383.07946 287.910437)scale(0.1 -0.1)">
       <defs>
        <path id="DejaVuSans-31" d="M 794 531 
L 1825 531 
L 1825 4091 
L 703 3866 
L 703 4441 
L 1819 4666 
L 2450 4666 
L 2450 531 
L 3481 531 
L 3481 0 
L 794 0 
L 794 531 
z
" transform="scale(0.015625)"/>
       </defs>
       <use xlink:href="#DejaVuSans-31"/>
       <use xlink:href="#DejaVuSans-2e" x="63.623047"/>
       <use xlink:href="#DejaVuSans-30" x="95.410156"/>
      </g>
     </g>
    </g>
    <g id="text_7">
     <!-- Propagation direction -->
     <g transform="translate(175.221719 301.588562)scale(0.1 -0.1)">
      <defs>
       <path id="DejaVuSans-50" d="M 1259 4147 
L 1259 2394 
L 2053 2394 
Q 2494 2394 2734 2622 
Q 2975 2850 2975 3272 
Q 2975 3691 2734 3919 
Q 2494 4147 2053 4147 
L 1259 4147 
z
M 628 4666 
L 2053 4666 
Q 2838 4666 3239 4311 
Q 3641 3956 3641 3272 
Q 3641 2581 3239 2228 
Q 2838 1875 2053 1875 
L 1259 1875 
L 1259 0 
L 628 0 
L 628 4666 
z
" transform="scale(0.015625)"/>
       <path id="DejaVuSans-72" d="M 2631 2963 
Q 2534 3019 2420 3045 
Q 2306 3072 2169 3072 
Q 1681 3072 1420 2755 
Q 1159 2438 1159 1844 
L 1159 0 
L 581 0 
L 581 3500 
L 1159 3500 
L 1159 2956 
Q 1341 3275 1631 3429 
Q 1922 3584 2338 3584 
Q 2397 3584 2469 3576 
Q 2541 3569 2628 3553 
L 2631 2963 
z
" transform="scale(0.015625)"/>
       <path id="DejaVuSans-6f" d="M 1959 3097 
Q 1497 3097 1228 2736 
Q 959 2375 959 1747 
Q 959 1119 1226 758 
Q 1494 397 1959 397 
Q 2419 397 2687 759 
Q 2956 1122 2956 1747 
Q 2956 2369 2687 2733 
Q 2419 3097 1959 3097 
z
M 1959 3584 
Q 2709 3584 3137 3096 
Q 3566 2609 3566 1747 
Q 3566 888 3137 398 
Q 2709 -91 1959 -91 
Q 1206 -91 779 398 
Q 353 888 353 1747 
Q 353 2609 779 3096 
Q 1206 3584 1959 3584 
z
" transform="scale(0.015625)"/>
       <path id="DejaVuSans-70" d="M 1159 525 
L 1159 -1331 
L 581 -1331 
L 581 3500 
L 1159 3500 
L 1159 2969 
Q 1341 3281 1617 3432 
Q 1894 3584 2278 3584 
Q 2916 3584 3314 3078 
Q 3713 2572 3713 1747 
Q 3713 922 3314 415 
Q 2916 -91 2278 -91 
Q 1894 -91 1617 61 
Q 1341 213 1159 525 
z
M 3116 1747 
Q 3116 2381 2855 2742 
Q 2594 3103 2138 3103 
Q 1681 3103 1420 2742 
Q 1159 2381 1159 1747 
Q 1159 1113 1420 752 
Q 1681 391 2138 391 
Q 2594 391 2855 752 
Q 3116 1113 3116 1747 
z
" transform="scale(0.015625)"/>
       <path id="DejaVuSans-61" d="M 2194 1759 
Q 1497 1759 1228 1600 
Q 959 1441 959 1056 
Q 959 750 1161 570 
Q 1363 391 1709 391 
Q 2188 391 2477 730 
Q 2766 1069 2766 1631 
L 2766 1759 
L 2194 1759 
z
M 3341 1997 
L 3341 0 
L 2766 0 
L 2766 531 
Q 2569 213 2275 61 
Q 1981 -91 1556 -91 
Q 1019 -91 701 211 
Q 384 513 384 1019 
Q 384 1609 779 1909 
Q 1175 2209 1959 2209 
L 2766 2209 
L 2766 2266 
Q 2766 2663 2505 2880 
Q 2244 3097 1772 3097 
Q 1472 3097 1187 3025 
Q 903 2953 641 2809 
L 641 3341 
Q 956 3463 1253 3523 
Q 1550 3584 1831 3584 
Q 2591 3584 2966 3190 
Q 3341 2797 3341 1997 
z
" transform="scale(0.015625)"/>
       <path id="DejaVuSans-67" d="M 2906 1791 
Q 2906 2416 2648 2759 
Q 2391 3103 1925 3103 
Q 1463 3103 1205 2759 
Q 947 2416 947 1791 
Q 947 1169 1205 825 
Q 1463 481 1925 481 
Q 2391 481 2648 825 
Q 2906 1169 2906 1791 
z
M 3481 434 
Q 3481 -459 3084 -895 
Q 2688 -1331 1869 -1331 
Q 1566 -1331 1297 -1286 
Q 1028 -1241 775 -1147 
L 775 -588 
Q 1028 -725 1275 -790 
Q 1522 -856 1778 -856 
Q 2344 -856 2625 -561 
Q 2906 -266 2906 331 
L 2906 616 
Q 2728 306 2450 153 
Q 2172 0 1784 0 
Q 1141 0 747 490 
Q 353 981 353 1791 
Q 353 2603 747 3093 
Q 1141 3584 1784 3584 
Q 2172 3584 2450 3431 
Q 2728 3278 2906 2969 
L 2906 3500 
L 3481 3500 
L 3481 434 
z
" transform="scale(0.015625)"/>
       <path id="DejaVuSans-74" d="M 1172 4494 
L 1172 3500 
L 2356 3500 
L 2356 3053 
L 1172 3053 
L 1172 1153 
Q 1172 725 1289 603 
Q 1406 481 1766 481 
L 2356 481 
L 2356 0 
L 1766 0 
Q 1100 0 847 248 
Q 594 497 594 1153 
L 594 3053 
L 172 3053 
L 172 3500 
L 594 3500 
L 594 4494 
L 1172 4494 
z
" transform="scale(0.015625)"/>
       <path id="DejaVuSans-69" d="M 603 3500 
L 1178 3500 
L 1178 0 
L 603 0 
L 603 3500 
z
M 603 4863 
L 1178 4863 
L 1178 4134 
L 603 4134 
L 603 4863 
z
" transform="scale(0.015625)"/>
       <path id="DejaVuSans-6e" d="M 3513 2113 
L 3513 0 
L 2938 0 
L 2938 2094 
Q 2938 2591 2744 2837 
Q 2550 3084 2163 3084 
Q 1697 3084 1428 2787 
Q 1159 2491 1159 1978 
L 1159 0 
L 581 0 
L 581 3500 
L 1159 3500 
L 1159 2956 
Q 1366 3272 1645 3428 
Q 1925 3584 2291 3584 
Q 2894 3584 3203 3211 
Q 3513 2838 3513 2113 
z
" transform="scale(0.015625)"/>
       <path id="DejaVuSans-20" transform="scale(0.015625)"/>
       <path id="DejaVuSans-64" d="M 2906 2969 
L 2906 4863 
L 3481 4863 
L 3481 0 
L 2906 0 
L 2906 525 
Q 2725 213 2448 61 
Q 2172 -91 1784 -91 
Q 1150 -91 751 415 
Q 353 922 353 1747 
Q 353 2572 751 3078 
Q 1150 3584 1784 3584 
Q 2172 3584 2448 3432 
Q 2725 3281 2906 2969 
z
M 947 1747 
Q 947 1113 1208 752 
Q 1469 391 1925 391 
Q 2381 391 2643 752 
Q 2906 1113 2906 1747 
Q 2906 2381 2643 2742 
Q 2381 3103 1925 3103 
Q 1469 3103 1208 2742 
Q 947 2381 947 1747 
z
" transform="scale(0.015625)"/>
       <path id="DejaVuSans-65" d="M 3597 1894 
L 3597 1613 
L 953 1613 
Q 991 1019 1311 708 
Q 1631 397 2203 397 
Q 2534 397 2845 478 
Q 3156 559 3463 722 
L 3463 178 
Q 3153 47 2828 -22 
Q 2503 -91 2169 -91 
Q 1331 -91 842 396 
Q 353 884 353 1716 
Q 353 2575 817 3079 
Q 1281 3584 2069 3584 
Q 2775 3584 3186 3129 
Q 3597 2675 3597 1894 
z
M 3022 2063 
Q 3016 2534 2758 2815 
Q 2500 3097 2075 3097 
Q 1594 3097 1305 2825 
Q 1016 2553 972 2059 
L 3022 2063 
z
" transform="scale(0.015625)"/>
       <path id="DejaVuSans-63" d="M 3122 3366 
L 3122 2828 
Q 2878 2963 2633 3030 
Q 2388 3097 2138 3097 
Q 1578 3097 1268 2742 
Q 959 2388 959 1747 
Q 959 1106 1268 751 
Q 1578 397 2138 397 
Q 2388 397 2633 464 
Q 2878 531 3122 666 
L 3122 134 
Q 2881 22 2623 -34 
Q 2366 -91 2075 -91 
Q 1284 -91 818 406 
Q 353 903 353 1747 
Q 353 2603 823 3093 
Q 1294 3584 2113 3584 
Q 2378 3584 2631 3529 
Q 2884 3475 3122 3366 
z
" transform="scale(0.015625)"/>
      </defs>
      <use xlink:href="#DejaVuSans-50"/>
      <use xlink:href="#DejaVuSans-72" x="58.552734"/>
      <use xlink:href="#DejaVuSans-6f" x="97.416016"/>
      <use xlink:href="#DejaVuSans-70" x="158.597656"/>
      <use xlink:href="#DejaVuSans-61" x="222.074219"/>
      <use xlink:href="#DejaVuSans-67" x="283.353516"/>
      <use xlink:href="#DejaVuSans-61" x="346.830078"/>
      <use xlink:href="#DejaVuSans-74" x="408.109375"/>
      <use xlink:href="#DejaVuSans-69" x="447.318359"/>
      <use xlink:href="#DejaVuSans-6f" x="475.101562"/>
      <use xlink:href="#DejaVuSans-6e" x="536.283203"/>
      <use xlink:href="#DejaVuSans-20" x="599.662109"/>
      <use xlink:href="#DejaVuSans-64" x="631.449219"/>
      <use xlink:href="#DejaVuSans-69" x="694.925781"/>
      <use xlink:href="#DejaVuSans-72" x="722.708984"/>
      <use xlink:href="#DejaVuSans-65" x="761.572266"/>
      <use xlink:href="#DejaVuSans-63" x="823.095703"/>
      <use xlink:href="#DejaVuSans-74" x="878.076172"/>
      <use xlink:href="#DejaVuSans-69" x="917.285156"/>
      <use xlink:href="#DejaVuSans-6f" x="945.068359"/>
      <use xlink:href="#DejaVuSans-6e" x="1006.25"/>
     </g>
    </g>
   </g>
   <g id="matplotlib.axis_2">
    <g id="ytick_1">
     <g id="line2d_7">
      <defs>
       <path id="m01eb4e28f6" d="M 0 0 
L -3.5 0 
" style="stroke: #000000; stroke-width: 0.8"/>
      </defs>
      <g>
       <use xlink:href="#m01eb4e28f6" x="50.14375" y="273.312" style="stroke: #000000; stroke-width: 0.8"/>
      </g>
     </g>
     <g id="text_8">
      <!-- 0.00 -->
      <g transform="translate(20.878125 277.111219)scale(0.1 -0.1)">
       <use xlink:href="#DejaVuSans-30"/>
       <use xlink:href="#DejaVuSans-2e" x="63.623047"/>
       <use xlink:href="#DejaVuSans-30" x="95.410156"/>
       <use xlink:href="#DejaVuSans-30" x="159.033203"/>
      </g>
     </g>
    </g>
    <g id="ytick_2">
     <g id="line2d_8">
      <g>
       <use xlink:href="#m01eb4e28f6" x="50.14375" y="242.901543" style="stroke: #000000; stroke-width: 0.8"/>
      </g>
     </g>
     <g id="text_9">
      <!-- 0.25 -->
      <g transform="translate(20.878125 246.700762)scale(0.1 -0.1)">
       <defs>
        <path id="DejaVuSans-35" d="M 691 4666 
L 3169 4666 
L 3169 4134 
L 1269 4134 
L 1269 2991 
Q 1406 3038 1543 3061 
Q 1681 3084 1819 3084 
Q 2600 3084 3056 2656 
Q 3513 2228 3513 1497 
Q 3513 744 3044 326 
Q 2575 -91 1722 -91 
Q 1428 -91 1123 -41 
Q 819 9 494 109 
L 494 744 
Q 775 591 1075 516 
Q 1375 441 1709 441 
Q 2250 441 2565 725 
Q 2881 1009 2881 1497 
Q 2881 1984 2565 2268 
Q 2250 2553 1709 2553 
Q 1456 2553 1204 2497 
Q 953 2441 691 2322 
L 691 4666 
z
" transform="scale(0.015625)"/>
       </defs>
       <use xlink:href="#DejaVuSans-30"/>
       <use xlink:href="#DejaVuSans-2e" x="63.623047"/>
       <use xlink:href="#DejaVuSans-32" x="95.410156"/>
       <use xlink:href="#DejaVuSans-35" x="159.033203"/>
      </g>
     </g>
    </g>
    <g id="ytick_3">
     <g id="line2d_9">
      <g>
       <use xlink:href="#m01eb4e28f6" x="50.14375" y="212.491086" style="stroke: #000000; stroke-width: 0.8"/>
      </g>
     </g>
     <g id="text_10">
      <!-- 0.50 -->
      <g transform="translate(20.878125 216.290305)scale(0.1 -0.1)">
       <use xlink:href="#DejaVuSans-30"/>
       <use xlink:href="#DejaVuSans-2e" x="63.623047"/>
       <use xlink:href="#DejaVuSans-35" x="95.410156"/>
       <use xlink:href="#DejaVuSans-30" x="159.033203"/>
      </g>
     </g>
    </g>
    <g id="ytick_4">
     <g id="line2d_10">
      <g>
       <use xlink:href="#m01eb4e28f6" x="50.14375" y="182.080629" style="stroke: #000000; stroke-width: 0.8"/>
      </g>
     </g>
     <g id="text_11">
      <!-- 0.75 -->
      <g transform="translate(20.878125 185.879848)scale(0.1 -0.1)">
       <defs>
        <path id="DejaVuSans-37" d="M 525 4666 
L 3525 4666 
L 3525 4397 
L 1831 0 
L 1172 0 
L 2766 4134 
L 525 4134 
L 525 4666 
z
" transform="scale(0.015625)"/>
       </defs>
       <use xlink:href="#DejaVuSans-30"/>
       <use xlink:href="#DejaVuSans-2e" x="63.623047"/>
       <use xlink:href="#DejaVuSans-37" x="95.410156"/>
       <use xlink:href="#DejaVuSans-35" x="159.033203"/>
      </g>
     </g>
    </g>
    <g id="ytick_5">
     <g id="line2d_11">
      <g>
       <use xlink:href="#m01eb4e28f6" x="50.14375" y="151.670172" style="stroke: #000000; stroke-width: 0.8"/>
      </g>
     </g>
     <g id="text_12">
      <!-- 1.00 -->
      <g transform="translate(20.878125 155.469391)scale(0.1 -0.1)">
       <use xlink:href="#DejaVuSans-31"/>
       <use xlink:href="#DejaVuSans-2e" x="63.623047"/>
       <use xlink:href="#DejaVuSans-30" x="95.410156"/>
       <use xlink:href="#DejaVuSans-30" x="159.033203"/>
      </g>
     </g>
    </g>
    <g id="ytick_6">
     <g id="line2d_12">
      <g>
       <use xlink:href="#m01eb4e28f6" x="50.14375" y="121.259715" style="stroke: #000000; stroke-width: 0.8"/>
      </g>
     </g>
     <g id="text_13">
      <!-- 1.25 -->
      <g transform="translate(20.878125 125.058934)scale(0.1 -0.1)">
       <use xlink:href="#DejaVuSans-31"/>
       <use xlink:href="#DejaVuSans-2e" x="63.623047"/>
       <use xlink:href="#DejaVuSans-32" x="95.410156"/>
       <use xlink:href="#DejaVuSans-35" x="159.033203"/>
      </g>
     </g>
    </g>
    <g id="ytick_7">
     <g id="line2d_13">
      <g>
       <use xlink:href="#m01eb4e28f6" x="50.14375" y="90.849258" style="stroke: #000000; stroke-width: 0.8"/>
      </g>
     </g>
     <g id="text_14">
      <!-- 1.50 -->
      <g transform="translate(20.878125 94.648477)scale(0.1 -0.1)">
       <use xlink:href="#DejaVuSans-31"/>
       <use xlink:href="#DejaVuSans-2e" x="63.623047"/>
       <use xlink:href="#DejaVuSans-35" x="95.410156"/>
       <use xlink:href="#DejaVuSans-30" x="159.033203"/>
      </g>
     </g>
    </g>
    <g id="ytick_8">
     <g id="line2d_14">
      <g>
       <use xlink:href="#m01eb4e28f6" x="50.14375" y="60.438801" style="stroke: #000000; stroke-width: 0.8"/>
      </g>
     </g>
     <g id="text_15">
      <!-- 1.75 -->
      <g transform="translate(20.878125 64.23802)scale(0.1 -0.1)">
       <use xlink:href="#DejaVuSans-31"/>
       <use xlink:href="#DejaVuSans-2e" x="63.623047"/>
       <use xlink:href="#DejaVuSans-37" x="95.410156"/>
       <use xlink:href="#DejaVuSans-35" x="159.033203"/>
      </g>
     </g>
    </g>
    <g id="ytick_9">
     <g id="line2d_15">
      <g>
       <use xlink:href="#m01eb4e28f6" x="50.14375" y="30.028344" style="stroke: #000000; stroke-width: 0.8"/>
      </g>
     </g>
     <g id="text_16">
      <!-- 2.00 -->
      <g transform="translate(20.878125 33.827563)scale(0.1 -0.1)">
       <use xlink:href="#DejaVuSans-32"/>
       <use xlink:href="#DejaVuSans-2e" x="63.623047"/>
       <use xlink:href="#DejaVuSans-30" x="95.410156"/>
       <use xlink:href="#DejaVuSans-30" x="159.033203"/>
      </g>
     </g>
    </g>
    <g id="text_17">
     <!-- Probability density -->
     <g transform="translate(14.798438 186.606781)rotate(-90)scale(0.1 -0.1)">
      <defs>
       <path id="DejaVuSans-62" d="M 3116 1747 
Q 3116 2381 2855 2742 
Q 2594 3103 2138 3103 
Q 1681 3103 1420 2742 
Q 1159 2381 1159 1747 
Q 1159 1113 1420 752 
Q 1681 391 2138 391 
Q 2594 391 2855 752 
Q 3116 1113 3116 1747 
z
M 1159 2969 
Q 1341 3281 1617 3432 
Q 1894 3584 2278 3584 
Q 2916 3584 3314 3078 
Q 3713 2572 3713 1747 
Q 3713 922 3314 415 
Q 2916 -91 2278 -91 
Q 1894 -91 1617 61 
Q 1341 213 1159 525 
L 1159 0 
L 581 0 
L 581 4863 
L 1159 4863 
L 1159 2969 
z
" transform="scale(0.015625)"/>
       <path id="DejaVuSans-6c" d="M 603 4863 
L 1178 4863 
L 1178 0 
L 603 0 
L 603 4863 
z
" transform="scale(0.015625)"/>
       <path id="DejaVuSans-79" d="M 2059 -325 
Q 1816 -950 1584 -1140 
Q 1353 -1331 966 -1331 
L 506 -1331 
L 506 -850 
L 844 -850 
Q 1081 -850 1212 -737 
Q 1344 -625 1503 -206 
L 1606 56 
L 191 3500 
L 800 3500 
L 1894 763 
L 2988 3500 
L 3597 3500 
L 2059 -325 
z
" transform="scale(0.015625)"/>
       <path id="DejaVuSans-73" d="M 2834 3397 
L 2834 2853 
Q 2591 2978 2328 3040 
Q 2066 3103 1784 3103 
Q 1356 3103 1142 2972 
Q 928 2841 928 2578 
Q 928 2378 1081 2264 
Q 1234 2150 1697 2047 
L 1894 2003 
Q 2506 1872 2764 1633 
Q 3022 1394 3022 966 
Q 3022 478 2636 193 
Q 2250 -91 1575 -91 
Q 1294 -91 989 -36 
Q 684 19 347 128 
L 347 722 
Q 666 556 975 473 
Q 1284 391 1588 391 
Q 1994 391 2212 530 
Q 2431 669 2431 922 
Q 2431 1156 2273 1281 
Q 2116 1406 1581 1522 
L 1381 1569 
Q 847 1681 609 1914 
Q 372 2147 372 2553 
Q 372 3047 722 3315 
Q 1072 3584 1716 3584 
Q 2034 3584 2315 3537 
Q 2597 3491 2834 3397 
z
" transform="scale(0.015625)"/>
      </defs>
      <use xlink:href="#DejaVuSans-50"/>
      <use xlink:href="#DejaVuSans-72" x="58.552734"/>
      <use xlink:href="#DejaVuSans-6f" x="97.416016"/>
      <use xlink:href="#DejaVuSans-62" x="158.597656"/>
      <use xlink:href="#DejaVuSans-61" x="222.074219"/>
      <use xlink:href="#DejaVuSans-62" x="283.353516"/>
      <use xlink:href="#DejaVuSans-69" x="346.830078"/>
      <use xlink:href="#DejaVuSans-6c" x="374.613281"/>
      <use xlink:href="#DejaVuSans-69" x="402.396484"/>
      <use xlink:href="#DejaVuSans-74" x="430.179688"/>
      <use xlink:href="#DejaVuSans-79" x="469.388672"/>
      <use xlink:href="#DejaVuSans-20" x="528.568359"/>
      <use xlink:href="#DejaVuSans-64" x="560.355469"/>
      <use xlink:href="#DejaVuSans-65" x="623.832031"/>
      <use xlink:href="#DejaVuSans-6e" x="685.355469"/>
      <use xlink:href="#DejaVuSans-73" x="748.734375"/>
      <use xlink:href="#DejaVuSans-69" x="800.833984"/>
      <use xlink:href="#DejaVuSans-74" x="828.617188"/>
      <use xlink:href="#DejaVuSans-79" x="867.826172"/>
     </g>
    </g>
   </g>
   <g id="line2d_16">
    <path d="M 66.376477 273.312 
L 391.031023 30.028344 
L 391.031023 30.028344 
" clip-path="url(#pf933a3f051)" style="fill: none; stroke: #ff7f0e; stroke-width: 1.5; stroke-linecap: square"/>
   </g>
   <g id="patch_203">
    <path d="M 50.14375 273.312 
L 50.14375 7.2 
" style="fill: none; stroke: #000000; stroke-width: 0.8; stroke-linejoin: miter; stroke-linecap: square"/>
   </g>
   <g id="patch_204">
    <path d="M 407.26375 273.312 
L 407.26375 7.2 
" style="fill: none; stroke: #000000; stroke-width: 0.8; stroke-linejoin: miter; stroke-linecap: square"/>
   </g>
   <g id="patch_205">
    <path d="M 50.14375 273.312 
L 407.26375 273.312 
" style="fill: none; stroke: #000000; stroke-width: 0.8; stroke-linejoin: miter; stroke-linecap: square"/>
   </g>
   <g id="patch_206">
    <path d="M 50.14375 7.2 
L 407.26375 7.2 
" style="fill: none; stroke: #000000; stroke-width: 0.8; stroke-linejoin: miter; stroke-linecap: square"/>
   </g>
  </g>
 </g>
 <defs>
  <clipPath id="pf933a3f051">
   <rect x="50.14375" y="7.2" width="357.12" height="266.112"/>
  </clipPath>
 </defs>
</svg>
